<svg width="684" height="323" viewBox="0 0 684 323" fill="none" xmlns="http://www.w3.org/2000/svg">
<g opacity="0.6" clip-path="url(#clip0_2167_1333)">
<path d="M16.9031 35.5H-395.903C-402.584 35.5 -408 40.9157 -408 47.5962V243.404C-408 250.084 -402.584 255.5 -395.903 255.5H16.9031C23.584 255.5 29 250.084 29 243.404V47.5962C29 40.9157 23.584 35.5 16.9031 35.5Z" fill="#FDFFFC"/>
<path d="M-49.2689 62.7372C-49.6356 62.7372 -49.9886 62.6936 -50.3273 62.6065C-50.6668 62.5195 -50.9874 62.3958 -51.2898 62.2354C-51.5877 62.075 -51.8644 61.878 -52.1214 61.6443C-52.3732 61.4107 -52.5932 61.1472 -52.7815 60.854C-53.0008 60.4966 -53.1709 60.098 -53.2896 59.6581C-53.409 59.2228 -53.4688 58.7669 -53.4688 58.2904C-53.4688 57.988 -53.4499 57.6948 -53.4136 57.4107C-53.3765 57.1266 -53.3198 56.8356 -53.2419 56.5378C-53.1595 56.24 -53.0537 55.9284 -52.9252 55.6031C-52.7928 55.2778 -52.6325 54.9204 -52.4443 54.5309L-50.8982 55.2664C-51.063 55.6008 -51.2006 55.9009 -51.3102 56.1667C-51.4206 56.4325 -51.5098 56.6844 -51.5786 56.9227C-51.6474 57.1564 -51.6973 57.3832 -51.7298 57.6031C-51.757 57.8185 -51.7706 58.0453 -51.7706 58.2836C-51.7706 58.5951 -51.7321 58.8929 -51.6542 59.177C-51.5763 59.4657 -51.4682 59.7245 -51.3306 59.9537C-51.1106 60.279 -50.8226 60.5378 -50.4649 60.7302C-50.1028 60.9273 -49.7044 61.0258 -49.2689 61.0258H-47.8739C-47.3878 61.0258 -46.9939 60.9754 -46.6915 60.8746C-46.3845 60.7738 -46.1464 60.6295 -45.977 60.4416C-45.8069 60.2583 -45.6927 60.0361 -45.633 59.7749C-45.5687 59.5137 -45.537 59.2251 -45.537 58.9089V54.2836H-43.8253V58.9089C-43.8253 60.1873 -44.1647 61.1449 -44.8429 61.7818C-45.5158 62.4187 -46.5267 62.7372 -47.8739 62.7372H-49.2689ZM-49.4065 53.7475L-48.1696 52.4966L-46.9047 53.7612L-48.1552 55.0121L-49.4065 53.7475ZM-38.4671 59.0396C-38.9714 59.0396 -39.4039 59.0074 -39.766 58.9433C-40.1282 58.8838 -40.4328 58.7944 -40.6801 58.6752C-40.9273 58.5516 -41.1269 58.3957 -41.2781 58.208C-41.4248 58.0201 -41.5374 57.8002 -41.6153 57.5481C-41.6932 57.2961 -41.7454 57.012 -41.7733 56.6959C-41.796 56.3751 -41.8073 56.0224 -41.8073 55.6375V49.1289H-40.0957V55.6375C-40.0957 56.004 -40.0843 56.2973 -40.0616 56.5172C-40.0344 56.7371 -39.9679 56.909 -39.862 57.0327C-39.7524 57.1518 -39.5898 57.232 -39.3744 57.2732C-39.1544 57.3099 -38.8519 57.3282 -38.4671 57.3282V59.0396ZM-33.6351 53.2663C-33.6261 53.2984 -33.6079 53.374 -33.5807 53.4931C-33.5482 53.6123 -33.5142 53.7589 -33.4771 53.933C-33.4408 54.1026 -33.4038 54.2927 -33.3675 54.5035C-33.3259 54.7143 -33.2896 54.9273 -33.2571 55.1426C-33.2208 55.3534 -33.1928 55.5596 -33.1747 55.7612C-33.152 55.9628 -33.1407 56.1392 -33.1407 56.2904C-33.1407 56.7623 -33.2186 57.1724 -33.3743 57.5207C-33.5301 57.8643 -33.7342 58.1484 -33.9859 58.3728C-34.2377 58.5974 -34.522 58.7646 -34.838 58.8746C-35.1495 58.9845 -35.4633 59.0396 -35.7801 59.0396H-38.7423V57.3282H-35.7317C-35.6765 57.3282 -35.5986 57.3213 -35.4981 57.3076C-35.3922 57.2892 -35.2894 57.2457 -35.1888 57.177C-35.083 57.1083 -34.9915 57.0052 -34.9136 56.8677C-34.8358 56.7257 -34.7972 56.5332 -34.7972 56.2904C-34.7972 56.1896 -34.8063 56.0682 -34.8244 55.9262C-34.838 55.7795 -34.8584 55.6237 -34.8864 55.4588C-34.9136 55.2938 -34.9462 55.1266 -34.9824 54.9571C-35.0142 54.783 -35.0467 54.6203 -35.0785 54.4691C-35.111 54.3133 -35.1427 54.1736 -35.1752 54.0499C-35.207 53.9216 -35.2319 53.8231 -35.2508 53.7543L-33.6351 53.2663ZM-34.4328 62.7784L-35.5873 61.61L-34.4464 60.4278L-33.2639 61.61L-34.4328 62.7784ZM-37.3126 62.7852L-38.4671 61.6169L-37.333 60.4347L-36.1513 61.6169L-37.3126 62.7852ZM-27.4582 58.6203C-27.4861 59.2526 -27.6026 59.8208 -27.809 60.3248C-28.0154 60.8334 -28.2989 61.2641 -28.6611 61.6169C-29.0232 61.9743 -29.461 62.2491 -29.9736 62.4416C-30.4869 62.634 -31.0668 62.7303 -31.7125 62.7303H-32.5653V61.0189H-31.7125C-31.2732 61.0189 -30.8929 60.9731 -30.5716 60.8814C-30.251 60.7898 -29.9879 60.6432 -29.7815 60.4416C-29.5751 60.24 -29.4217 59.9766 -29.3211 59.6513C-29.2198 59.3305 -29.1699 58.9387 -29.1699 58.476V54.2904H-27.4582V58.6203ZM-29.6303 51.3145L-28.3934 50.0636L-27.1285 51.3282L-28.3791 52.5791L-29.6303 51.3145ZM-20.7013 61.0189C-20.3346 61.0189 -20.0095 61.0052 -19.7253 60.9777C-19.4372 60.9548 -19.1824 60.9181 -18.9624 60.8677C-18.7378 60.8219 -18.5435 60.76 -18.3787 60.6822C-18.2086 60.6088 -18.0619 60.5195 -17.9387 60.4141C-17.7459 60.2583 -17.6015 60.0773 -17.5055 59.8712C-17.4049 59.6649 -17.3452 59.3878 -17.327 59.0396H-18.3855C-18.6146 59.0396 -18.8482 59.0212 -19.0864 58.9845C-19.3245 58.9479 -19.5536 58.886 -19.7736 58.799C-19.9936 58.7074 -20.2023 58.5905 -20.3989 58.4484C-20.5917 58.3065 -20.761 58.1323 -20.9077 57.9261C-21.0498 57.7153 -21.164 57.468 -21.2517 57.1839C-21.3341 56.8998 -21.375 56.5745 -21.375 56.2079C-21.375 55.8918 -21.3477 55.6123 -21.2925 55.3694C-21.2373 55.122 -21.1686 54.9044 -21.0861 54.7165C-20.9992 54.5287 -20.9032 54.366 -20.7981 54.2285C-20.6923 54.0865 -20.5917 53.9628 -20.4957 53.8574C-20.2205 53.5825 -19.909 53.3717 -19.5604 53.2251C-19.2126 53.0739 -18.8369 52.9983 -18.4331 52.9983C-17.9341 52.9983 -17.5077 53.0854 -17.1546 53.2595C-16.7978 53.429 -16.5067 53.665 -16.2822 53.9674C-16.0531 54.2698 -15.886 54.6294 -15.7801 55.0464C-15.6751 55.4588 -15.6221 55.9078 -15.6221 56.3935V58.8333C-15.6221 59.5161 -15.725 60.0888 -15.9314 60.5516C-16.1378 61.0189 -16.4515 61.4198 -16.8734 61.7543C-17.0836 61.9193 -17.3127 62.0613 -17.5606 62.1804C-17.8079 62.3041 -18.0854 62.4072 -18.3923 62.4897C-18.6993 62.5722 -19.0425 62.6318 -19.4228 62.6684C-19.7986 62.7096 -20.225 62.7303 -20.7013 62.7303V61.0189ZM-18.4331 54.7096C-18.8225 54.7096 -19.1325 54.8311 -19.3616 55.0739C-19.5907 55.3167 -19.7048 55.6947 -19.7048 56.2079C-19.7048 56.4095 -19.6663 56.5813 -19.5884 56.7234C-19.5052 56.8654 -19.4024 56.9823 -19.2784 57.0739C-19.1507 57.1609 -19.0085 57.2251 -18.8528 57.2663C-18.697 57.3076 -18.5412 57.3282 -18.3855 57.3282H-17.327V56.3935C-17.327 56.1323 -17.3475 55.9101 -17.3883 55.7268C-17.4299 55.539 -17.4851 55.3832 -17.5539 55.2595C-17.6174 55.1357 -17.693 55.0372 -17.7807 54.964C-17.8631 54.8906 -17.9455 54.8357 -18.0279 54.799C-18.1058 54.7623 -18.1814 54.7394 -18.2547 54.7303C-18.3281 54.7165 -18.3878 54.7096 -18.4331 54.7096ZM-6.56535 59.0464C-6.73924 59.0464 -6.91087 59.0372 -7.08099 59.0189C-7.25034 59.0006 -7.42194 58.9754 -7.59584 58.9433C-7.77048 58.9113 -7.94893 58.8723 -8.13265 58.8264C-8.31562 58.7761 -8.50841 58.7211 -8.70952 58.6616L-9.52755 58.4141L-9.03236 56.7646C-8.63392 56.9021 -8.22188 57.0235 -7.79546 57.1289C-7.36451 57.2343 -6.95926 57.303 -6.57896 57.3351C-6.45497 57.3442 -6.33625 57.3488 -6.22133 57.3488C-5.99225 57.3488 -5.76316 57.3236 -5.53408 57.2732C-5.30046 57.2228 -5.13565 57.0968 -5.03963 56.8952C-5.02073 56.8585 -5.01166 56.815 -5.01166 56.7646C-5.01166 56.7325 -5.02073 56.6822 -5.03963 56.6134C-5.05777 56.5447 -5.10387 56.4576 -5.17645 56.3522L-7.74023 52.6134L-6.29692 51.6787L-5.82969 52.4003C-5.82969 52.4049 -5.8229 52.4187 -5.8093 52.4416C-5.79115 52.4645 -5.75863 52.5126 -5.71326 52.5859C-5.66261 52.6593 -5.5938 52.7647 -5.50686 52.9021C-5.41537 53.0349 -5.29594 53.2114 -5.14927 53.4313C-5.00259 53.6512 -4.82413 53.9238 -4.61319 54.2492C-4.39772 54.5699 -4.14141 54.9547 -3.84352 55.4038C-3.6099 55.7566 -3.4655 56.1209 -3.41031 56.4966C-3.39669 56.5928 -3.38991 56.6867 -3.38991 56.7784C-3.38991 57.0533 -3.44511 57.3168 -3.55474 57.5687C-3.63261 57.752 -3.73768 57.9216 -3.87075 58.0773C-3.99928 58.2285 -4.15052 58.3637 -4.32441 58.4828C-4.65027 58.7074 -5.0419 58.8608 -5.50007 58.9433C-5.8849 59.012 -6.24025 59.0464 -6.56535 59.0464ZM-1.43097 61.0189C-1.06428 61.0189 -0.739162 61.0052 -0.454887 60.9777C-0.166073 60.9548 0.0879402 60.9181 0.307953 60.8677C0.532501 60.8219 0.72757 60.76 0.892391 60.6822C1.06175 60.6088 1.20845 60.5195 1.33244 60.4141C1.52448 60.2583 1.66885 60.0773 1.76487 59.8712C1.86618 59.6649 1.92516 59.3878 1.94406 59.0396H0.885609C0.656525 59.0396 0.422871 59.0212 0.18396 58.9845C-0.0541992 58.9479 -0.283283 58.886 -0.503292 58.799C-0.723305 58.7074 -0.931194 58.5905 -1.12852 58.4484C-1.32132 58.3065 -1.4907 58.1323 -1.63737 57.9261C-1.77951 57.7153 -1.89367 57.468 -1.98061 57.1839C-2.06302 56.8998 -2.1046 56.5745 -2.1046 56.2079C-2.1046 55.8918 -2.07738 55.6123 -2.02219 55.3694C-1.967 55.122 -1.89819 54.9044 -1.81578 54.7165C-1.72883 54.5287 -1.63284 54.366 -1.527 54.2285C-1.42191 54.0865 -1.32133 53.9628 -1.22456 53.8574C-0.950108 53.5825 -0.638641 53.3717 -0.2901 53.2251C0.0584412 53.0739 0.434223 52.9983 0.8372 52.9983C1.33695 52.9983 1.7626 53.0854 2.11567 53.2595C2.47329 53.429 2.76361 53.665 2.98816 53.9674C3.21724 54.2698 3.38509 54.6294 3.49018 55.0464C3.59527 55.4588 3.64823 55.9078 3.64823 56.3935V57.3282H4.81706V59.0396H3.6414C3.62325 59.6673 3.51059 60.1965 3.30495 60.6272C3.10308 61.0579 2.8007 61.4336 2.39772 61.7543C2.18678 61.9193 1.9577 62.0613 1.71047 62.1804C1.46248 62.3041 1.18574 62.4072 0.878777 62.4897C0.571064 62.5722 0.227802 62.6318 -0.152493 62.6684C-0.528252 62.7096 -0.954651 62.7303 -1.43097 62.7303V61.0189ZM0.8372 54.7096C0.44783 54.7096 0.138615 54.8311 -0.0904732 55.0739C-0.319557 55.3167 -0.43449 55.6947 -0.43449 56.2079C-0.43449 56.4095 -0.395153 56.5813 -0.31728 56.7234C-0.234871 56.8654 -0.13205 56.9823 -0.00805664 57.0739C0.120476 57.1609 0.261848 57.2251 0.417595 57.2663C0.5741 57.3076 0.729858 57.3282 0.885609 57.3282H1.94406V56.3935C1.94406 56.1323 1.92291 55.9101 1.88208 55.7268C1.8405 55.539 1.78605 55.3832 1.71725 55.2595C1.65298 55.1357 1.57739 55.0372 1.49044 54.964C1.40803 54.8906 1.32486 54.8357 1.24245 54.799C1.16458 54.7623 1.08899 54.7394 1.01565 54.7303C0.94231 54.7165 0.88332 54.7096 0.8372 54.7096ZM9.80705 59.0258C8.96859 59.0258 8.304 58.8082 7.81332 58.3728C7.56155 58.6065 7.2818 58.7761 6.97485 58.8815C6.66788 58.9869 6.35188 59.0396 6.02678 59.0396H4.47987V57.3282H6.02678C6.08121 57.3282 6.15905 57.319 6.26036 57.3007C6.36546 57.2824 6.46828 57.2388 6.56959 57.1701C6.67468 57.0968 6.76619 56.9914 6.84407 56.854C6.92194 56.712 6.96123 56.5172 6.96123 56.2698V54.2904H8.67297V56.2423C8.67297 56.618 8.75989 56.8929 8.93378 57.0671C9.11222 57.2365 9.40332 57.3213 9.80705 57.3213C9.86149 57.3213 9.93933 57.3122 10.0406 57.2939C10.1457 57.2709 10.2486 57.2228 10.3499 57.1495C10.455 57.0762 10.5465 56.9685 10.6243 56.8265C10.7022 56.6799 10.7415 56.4851 10.7415 56.2423V54.2904H12.4464V56.2423C12.4464 56.618 12.5356 56.8952 12.7141 57.0739C12.8978 57.248 13.1927 57.3351 13.6009 57.3351C13.6607 57.3351 13.7408 57.3236 13.8414 57.3007C13.9465 57.2732 14.05 57.2228 14.1506 57.1495C14.2511 57.0716 14.3389 56.9617 14.4122 56.8196C14.4855 56.6776 14.5218 56.4851 14.5218 56.2423C14.5218 56.1415 14.5127 56.02 14.4946 55.878C14.4802 55.736 14.4598 55.5871 14.4326 55.4313C14.4099 55.2709 14.3819 55.1106 14.3502 54.9502C14.3177 54.7853 14.2859 54.6294 14.2534 54.4828C14.2216 54.3363 14.1899 54.2033 14.1574 54.0842C14.1301 53.9651 14.1075 53.8712 14.0886 53.8024L15.7043 53.2732C15.7133 53.3053 15.7315 53.3786 15.7587 53.4931C15.7867 53.6077 15.8185 53.7497 15.8555 53.9192C15.8963 54.0888 15.9379 54.2767 15.9787 54.4828C16.0203 54.689 16.0566 54.8975 16.0891 55.1083C16.1254 55.3145 16.1557 55.5184 16.1783 55.72C16.201 55.917 16.2123 56.0911 16.2123 56.2423C16.2123 56.7096 16.1345 57.1197 15.9787 57.4725C15.8275 57.8207 15.6287 58.1117 15.3807 58.3454C15.1335 58.5745 14.8537 58.7463 14.5422 58.8608C14.2307 58.9754 13.917 59.035 13.6009 59.0396C12.7489 59.0396 12.0752 58.815 11.58 58.366C11.3282 58.5996 11.0485 58.7692 10.7415 58.8746C10.4391 58.9754 10.1276 59.0258 9.80705 59.0258Z" fill="#001219"/>
<g filter="url(#filter0_d_2167_1333)">
<path d="M4.80587 195.019C11.4868 195.019 16.9028 189.603 16.9028 182.923C16.9028 176.242 11.4868 170.827 4.80587 170.827C-1.87506 170.827 -7.29102 176.242 -7.29102 182.923C-7.29102 189.603 -1.87506 195.019 4.80587 195.019Z" fill="#F5A524"/>
</g>
<path d="M13.8797 173.851H-4.26562V191.995H13.8797V173.851Z"/>
<path d="M6.31761 219.211H-17.8762C-23.722 219.211 -28.4609 223.95 -28.4609 229.796C-28.4609 235.641 -23.722 240.38 -17.8762 240.38H6.31761C12.1634 240.38 16.9024 235.641 16.9024 229.796C16.9024 223.95 12.1634 219.211 6.31761 219.211Z" fill="#14E21C"/>
<path d="M-12.0723 227.119C-12.0723 226.665 -11.9271 226.292 -11.6353 226C-11.3412 225.709 -10.9556 225.563 -10.48 225.563C-9.99844 225.563 -9.6121 225.709 -9.32026 226C-9.02918 226.292 -8.88326 226.674 -8.88326 227.147V227.519C-8.88326 227.97 -9.02918 228.341 -9.32026 228.633C-9.6121 228.921 -9.9954 229.065 -10.471 229.065C-10.9344 229.065 -11.3178 228.922 -11.6217 228.637C-11.9226 228.352 -12.0723 227.968 -12.0723 227.487V227.119ZM-11.1937 227.519C-11.1937 227.755 -11.1272 227.947 -10.9957 228.095C-10.8603 228.241 -10.6857 228.315 -10.471 228.315C-10.2562 228.315 -10.0846 228.241 -9.95532 228.095C-9.82377 227.947 -9.758 227.748 -9.758 227.496V227.119C-9.758 226.883 -9.82377 226.691 -9.95532 226.543C-10.0876 226.393 -10.2623 226.318 -10.48 226.318C-10.6978 226.318 -10.8717 226.393 -11.0002 226.543C-11.1295 226.694 -11.1937 226.892 -11.1937 227.137V227.519ZM-8.4553 231.352C-8.4553 230.892 -8.30486 230.519 -8.00395 230.234C-7.70379 229.946 -7.32197 229.802 -6.85851 229.802C-6.389 229.802 -6.0057 229.946 -5.70782 230.234C-5.40993 230.519 -5.26172 230.905 -5.26172 231.389V231.758C-5.26172 232.205 -5.40539 232.575 -5.6942 232.867C-5.97924 233.155 -6.36253 233.299 -6.8449 233.299C-7.32953 233.299 -7.71891 233.156 -8.01377 232.871C-8.30788 232.582 -8.4553 232.202 -8.4553 231.73V231.352ZM-7.57603 231.758C-7.57603 231.99 -7.50872 232.182 -7.37415 232.333C-7.23579 232.483 -7.05962 232.558 -6.8449 232.558C-6.6264 232.558 -6.45481 232.488 -6.32931 232.346C-6.20305 232.202 -6.1403 231.999 -6.1403 231.739V231.352C-6.1403 231.11 -6.2083 230.917 -6.34288 230.772C-6.47519 230.628 -6.64682 230.556 -6.85851 230.556C-7.07021 230.556 -7.24338 230.628 -7.37871 230.772C-7.51027 230.917 -7.57603 231.118 -7.57603 231.376V231.758ZM-10.2131 232.636L-10.8573 232.263L-7.18061 226.382L-6.53646 226.755L-10.2131 232.636ZM0.813901 233.198H-4.24863V232.333L-1.74079 229.599C-1.37864 229.197 -1.12081 228.861 -0.967334 228.591C-0.813854 228.321 -0.73748 228.05 -0.73748 227.777C-0.73748 227.418 -0.838821 227.128 -1.04144 226.907C-1.24029 226.686 -1.51168 226.576 -1.85569 226.576C-2.26093 226.576 -2.57549 226.7 -2.79928 226.948C-3.02307 227.197 -3.13495 227.536 -3.13495 227.965H-4.3915C-4.3915 227.508 -4.28717 227.097 -4.07849 226.732C-3.86982 226.364 -3.57196 226.078 -3.18562 225.876C-2.79625 225.671 -2.34792 225.568 -1.84212 225.568C-1.11177 225.568 -0.5364 225.752 -0.116033 226.12C0.307358 226.488 0.519074 226.996 0.519074 227.643C0.519074 228.018 0.413193 228.412 0.201497 228.826C-0.0101976 229.237 -0.357209 229.703 -0.838817 230.225L-2.67907 232.194H0.813901V233.198ZM2.74262 231.73C2.99438 231.73 3.18945 231.802 3.32705 231.946C3.46541 232.087 3.5342 232.266 3.5342 232.485C3.5342 232.696 3.46541 232.871 3.32705 233.009C3.18945 233.147 2.99438 233.216 2.74262 233.216C2.50068 233.216 2.30865 233.149 2.16727 233.014C2.02664 232.876 1.95555 232.698 1.95555 232.479C1.95555 232.265 2.02514 232.087 2.16275 231.946C2.3011 231.802 2.49463 231.73 2.74262 231.73ZM5.28674 229.465L5.69651 225.674H9.73687V226.759H6.74139L6.53425 228.559C6.88052 228.357 7.27365 228.256 7.71217 228.256C8.43042 228.256 8.98689 228.485 9.38307 228.946C9.78151 229.403 9.98107 230.019 9.98107 230.796C9.98107 231.559 9.76034 232.169 9.31805 232.622C8.87953 233.074 8.27544 233.299 7.50502 233.299C6.81776 233.299 6.24696 233.104 5.79333 232.715C5.33894 232.325 5.09393 231.81 5.05688 231.169H6.27191C6.32105 231.534 6.45107 231.814 6.66276 232.011C6.87748 232.204 7.15725 232.3 7.5005 232.3C7.88684 232.3 8.18774 232.162 8.40246 231.886C8.61718 231.61 8.72452 231.234 8.72452 230.759C8.72452 230.301 8.60508 229.939 8.36541 229.672C8.12952 229.403 7.80289 229.268 7.38555 229.268C7.15873 229.268 6.9652 229.298 6.80568 229.359C6.64917 229.421 6.47754 229.539 6.29004 229.714L5.28674 229.465Z" fill="white"/>
</g>
<rect x="53" width="578" height="291" rx="16" fill="#FDFFFC"/>
<path d="M527.477 36.0273C526.992 36.0273 526.525 35.9697 526.077 35.8545C525.628 35.7394 525.204 35.5758 524.804 35.3636C524.41 35.1515 524.044 34.8909 523.704 34.5818C523.371 34.2727 523.08 33.9242 522.831 33.5364C522.541 33.0636 522.316 32.5364 522.159 31.9545C522.001 31.3788 521.922 30.7758 521.922 30.1455C521.922 29.7455 521.947 29.3576 521.995 28.9818C522.044 28.6061 522.119 28.2212 522.222 27.8273C522.331 27.4333 522.471 27.0212 522.641 26.5909C522.816 26.1606 523.028 25.6879 523.277 25.1727L525.322 26.1455C525.104 26.5879 524.922 26.9848 524.777 27.3364C524.631 27.6879 524.513 28.0212 524.422 28.3364C524.331 28.6455 524.265 28.9455 524.222 29.2364C524.186 29.5212 524.168 29.8212 524.168 30.1364C524.168 30.5485 524.219 30.9424 524.322 31.3182C524.425 31.7 524.568 32.0424 524.75 32.3455C525.041 32.7758 525.422 33.1182 525.895 33.3727C526.374 33.6333 526.901 33.7636 527.477 33.7636H529.322C529.965 33.7636 530.486 33.697 530.886 33.5636C531.292 33.4303 531.607 33.2394 531.831 32.9909C532.056 32.7485 532.207 32.4545 532.286 32.1091C532.371 31.7636 532.413 31.3818 532.413 30.9636V24.8455H534.677V30.9636C534.677 32.6545 534.228 33.9212 533.331 34.7636C532.441 35.6061 531.104 36.0273 529.322 36.0273H527.477ZM527.295 24.1364L528.931 22.4818L530.604 24.1545L528.95 25.8091L527.295 24.1364ZM541.764 31.1364C541.097 31.1364 540.525 31.0939 540.046 31.0091C539.567 30.9303 539.164 30.8121 538.837 30.6545C538.51 30.4909 538.246 30.2848 538.046 30.0364C537.852 29.7879 537.703 29.497 537.6 29.1636C537.497 28.8303 537.428 28.4545 537.391 28.0364C537.361 27.6121 537.346 27.1455 537.346 26.6364V18.0273H539.61V26.6364C539.61 27.1212 539.625 27.5091 539.655 27.8C539.691 28.0909 539.779 28.3182 539.919 28.4818C540.064 28.6394 540.279 28.7455 540.564 28.8C540.855 28.8485 541.255 28.8727 541.764 28.8727V31.1364ZM548.155 23.5C548.167 23.5424 548.191 23.6424 548.227 23.8C548.27 23.9576 548.315 24.1515 548.364 24.3818C548.412 24.6061 548.461 24.8576 548.509 25.1364C548.564 25.4152 548.612 25.697 548.655 25.9818C548.703 26.2606 548.74 26.5333 548.764 26.8C548.794 27.0667 548.809 27.3 548.809 27.5C548.809 28.1242 548.706 28.6667 548.5 29.1273C548.294 29.5818 548.024 29.9576 547.691 30.2545C547.358 30.5515 546.982 30.7727 546.564 30.9182C546.152 31.0636 545.737 31.1364 545.318 31.1364H541.4V28.8727H545.382C545.455 28.8727 545.558 28.8636 545.691 28.8455C545.831 28.8212 545.967 28.7636 546.1 28.6727C546.24 28.5818 546.361 28.4455 546.464 28.2636C546.567 28.0758 546.618 27.8212 546.618 27.5C546.618 27.3667 546.606 27.2061 546.582 27.0182C546.564 26.8242 546.537 26.6182 546.5 26.4C546.464 26.1818 546.421 25.9606 546.373 25.7364C546.331 25.5061 546.288 25.2909 546.246 25.0909C546.203 24.8848 546.161 24.7 546.118 24.5364C546.076 24.3667 546.043 24.2364 546.018 24.1455L548.155 23.5ZM547.1 36.0818L545.573 34.5364L547.082 32.9727L548.646 34.5364L547.1 36.0818ZM543.291 36.0909L541.764 34.5455L543.264 32.9818L544.827 34.5455L543.291 36.0909ZM556.325 30.5818C556.288 31.4182 556.134 32.1697 555.861 32.8364C555.588 33.5091 555.213 34.0788 554.734 34.5455C554.255 35.0182 553.676 35.3818 552.998 35.6364C552.319 35.8909 551.552 36.0182 550.698 36.0182H549.57V33.7545H550.698C551.279 33.7545 551.782 33.6939 552.207 33.5727C552.631 33.4515 552.979 33.2576 553.252 32.9909C553.525 32.7242 553.728 32.3758 553.861 31.9455C553.995 31.5212 554.061 31.003 554.061 30.3909V24.8545H556.325V30.5818ZM553.452 20.9182L555.088 19.2636L556.761 20.9364L555.107 22.5909L553.452 20.9182ZM565.262 33.7545C565.747 33.7545 566.177 33.7364 566.553 33.7C566.934 33.6697 567.271 33.6212 567.562 33.5545C567.859 33.4939 568.116 33.4121 568.334 33.3091C568.559 33.2121 568.753 33.0939 568.916 32.9545C569.171 32.7485 569.362 32.5091 569.489 32.2364C569.622 31.9636 569.701 31.597 569.725 31.1364H568.325C568.022 31.1364 567.713 31.1121 567.398 31.0636C567.083 31.0152 566.78 30.9333 566.489 30.8182C566.198 30.697 565.922 30.5424 565.662 30.3545C565.407 30.1667 565.183 29.9364 564.989 29.6636C564.801 29.3848 564.65 29.0576 564.534 28.6818C564.425 28.3061 564.371 27.8758 564.371 27.3909C564.371 26.9727 564.407 26.603 564.48 26.2818C564.553 25.9545 564.644 25.6667 564.753 25.4182C564.868 25.1697 564.995 24.9545 565.134 24.7727C565.274 24.5848 565.407 24.4212 565.534 24.2818C565.898 23.9182 566.31 23.6394 566.771 23.4455C567.231 23.2455 567.728 23.1455 568.262 23.1455C568.922 23.1455 569.486 23.2606 569.953 23.4909C570.425 23.7152 570.81 24.0273 571.107 24.4273C571.41 24.8273 571.631 25.303 571.771 25.8545C571.91 26.4 571.98 26.9939 571.98 27.6364V30.8636C571.98 31.7667 571.844 32.5242 571.571 33.1364C571.298 33.7545 570.883 34.2848 570.325 34.7273C570.047 34.9455 569.744 35.1333 569.416 35.2909C569.089 35.4545 568.722 35.5909 568.316 35.7C567.91 35.8091 567.456 35.8879 566.953 35.9364C566.456 35.9909 565.892 36.0182 565.262 36.0182V33.7545ZM568.262 25.4091C567.747 25.4091 567.337 25.5697 567.034 25.8909C566.731 26.2121 566.58 26.7121 566.58 27.3909C566.58 27.6576 566.631 27.8848 566.734 28.0727C566.844 28.2606 566.98 28.4152 567.144 28.5364C567.313 28.6515 567.501 28.7364 567.707 28.7909C567.913 28.8455 568.119 28.8727 568.325 28.8727H569.725V27.6364C569.725 27.2909 569.698 26.997 569.644 26.7545C569.589 26.5061 569.516 26.3 569.425 26.1364C569.341 25.9727 569.241 25.8424 569.125 25.7455C569.016 25.6485 568.907 25.5758 568.798 25.5273C568.695 25.4788 568.595 25.4485 568.498 25.4364C568.401 25.4182 568.322 25.4091 568.262 25.4091ZM583.959 31.1455C583.729 31.1455 583.502 31.1333 583.277 31.1091C583.053 31.0848 582.826 31.0515 582.596 31.0091C582.365 30.9667 582.129 30.9152 581.886 30.8545C581.644 30.7879 581.389 30.7152 581.123 30.6364L580.041 30.3091L580.696 28.1273C581.223 28.3091 581.768 28.4697 582.332 28.6091C582.902 28.7485 583.438 28.8394 583.941 28.8818C584.105 28.8939 584.262 28.9 584.414 28.9C584.717 28.9 585.02 28.8667 585.323 28.8C585.632 28.7333 585.85 28.5667 585.977 28.3C586.002 28.2515 586.014 28.1939 586.014 28.1273C586.014 28.0848 586.002 28.0182 585.977 27.9273C585.953 27.8364 585.892 27.7212 585.796 27.5818L582.405 22.6364L584.314 21.4L584.932 22.3545C584.932 22.3606 584.941 22.3788 584.959 22.4091C584.983 22.4394 585.026 22.503 585.086 22.6C585.153 22.697 585.244 22.8364 585.359 23.0182C585.48 23.1939 585.638 23.4273 585.832 23.7182C586.026 24.0091 586.262 24.3697 586.541 24.8C586.826 25.2242 587.165 25.7333 587.559 26.3273C587.868 26.7939 588.059 27.2758 588.132 27.7727C588.15 27.9 588.159 28.0242 588.159 28.1455C588.159 28.5091 588.086 28.8576 587.941 29.1909C587.838 29.4333 587.699 29.6576 587.523 29.8636C587.353 30.0636 587.153 30.2424 586.923 30.4C586.492 30.697 585.974 30.9 585.368 31.0091C584.859 31.1 584.389 31.1455 583.959 31.1455ZM590.75 33.7545C591.235 33.7545 591.665 33.7364 592.041 33.7C592.423 33.6697 592.759 33.6212 593.05 33.5545C593.347 33.4939 593.605 33.4121 593.823 33.3091C594.047 33.2121 594.241 33.0939 594.405 32.9545C594.659 32.7485 594.85 32.5091 594.977 32.2364C595.111 31.9636 595.189 31.597 595.214 31.1364H593.814C593.511 31.1364 593.202 31.1121 592.886 31.0636C592.571 31.0152 592.268 30.9333 591.977 30.8182C591.686 30.697 591.411 30.5424 591.15 30.3545C590.895 30.1667 590.671 29.9364 590.477 29.6636C590.289 29.3848 590.138 29.0576 590.023 28.6818C589.914 28.3061 589.859 27.8758 589.859 27.3909C589.859 26.9727 589.895 26.603 589.968 26.2818C590.041 25.9545 590.132 25.6667 590.241 25.4182C590.356 25.1697 590.483 24.9545 590.623 24.7727C590.762 24.5848 590.895 24.4212 591.023 24.2818C591.386 23.9182 591.798 23.6394 592.259 23.4455C592.72 23.2455 593.217 23.1455 593.75 23.1455C594.411 23.1455 594.974 23.2606 595.441 23.4909C595.914 23.7152 596.298 24.0273 596.595 24.4273C596.898 24.8273 597.12 25.303 597.259 25.8545C597.398 26.4 597.468 26.9939 597.468 27.6364V28.8727H599.014V31.1364H597.459C597.435 31.9667 597.286 32.6667 597.014 33.2364C596.747 33.8061 596.347 34.303 595.814 34.7273C595.535 34.9455 595.232 35.1333 594.905 35.2909C594.577 35.4545 594.211 35.5909 593.805 35.7C593.398 35.8091 592.944 35.8879 592.441 35.9364C591.944 35.9909 591.38 36.0182 590.75 36.0182V33.7545ZM593.75 25.4091C593.235 25.4091 592.826 25.5697 592.523 25.8909C592.22 26.2121 592.068 26.7121 592.068 27.3909C592.068 27.6576 592.12 27.8848 592.223 28.0727C592.332 28.2606 592.468 28.4152 592.632 28.5364C592.802 28.6515 592.989 28.7364 593.195 28.7909C593.402 28.8455 593.608 28.8727 593.814 28.8727H595.214V27.6364C595.214 27.2909 595.186 26.997 595.132 26.7545C595.077 26.5061 595.005 26.3 594.914 26.1364C594.829 25.9727 594.729 25.8424 594.614 25.7455C594.505 25.6485 594.395 25.5758 594.286 25.5273C594.183 25.4788 594.083 25.4485 593.986 25.4364C593.889 25.4182 593.811 25.4091 593.75 25.4091ZM605.614 31.1182C604.505 31.1182 603.626 30.8303 602.977 30.2545C602.644 30.5636 602.274 30.7879 601.868 30.9273C601.462 31.0667 601.044 31.1364 600.614 31.1364H598.568V28.8727H600.614C600.686 28.8727 600.789 28.8606 600.923 28.8364C601.062 28.8121 601.198 28.7545 601.332 28.6636C601.471 28.5667 601.592 28.4273 601.695 28.2455C601.798 28.0576 601.85 27.8 601.85 27.4727V24.8545H604.114V27.4364C604.114 27.9333 604.229 28.297 604.459 28.5273C604.695 28.7515 605.08 28.8636 605.614 28.8636C605.686 28.8636 605.789 28.8515 605.923 28.8273C606.062 28.797 606.198 28.7333 606.332 28.6364C606.471 28.5394 606.592 28.397 606.695 28.2091C606.798 28.0152 606.85 27.7576 606.85 27.4364V24.8545H609.105V27.4364C609.105 27.9333 609.223 28.3 609.459 28.5364C609.702 28.7667 610.092 28.8818 610.632 28.8818C610.711 28.8818 610.817 28.8667 610.95 28.8364C611.089 28.8 611.226 28.7333 611.359 28.6364C611.492 28.5333 611.608 28.3879 611.705 28.2C611.802 28.0121 611.85 27.7576 611.85 27.4364C611.85 27.303 611.838 27.1424 611.814 26.9545C611.795 26.7667 611.768 26.5697 611.732 26.3636C611.702 26.1515 611.665 25.9394 611.623 25.7273C611.58 25.5091 611.538 25.303 611.495 25.1091C611.453 24.9152 611.411 24.7394 611.368 24.5818C611.332 24.4242 611.302 24.3 611.277 24.2091L613.414 23.5091C613.426 23.5515 613.45 23.6485 613.486 23.8C613.523 23.9515 613.565 24.1394 613.614 24.3636C613.668 24.5879 613.723 24.8364 613.777 25.1091C613.832 25.3818 613.88 25.6576 613.923 25.9364C613.971 26.2091 614.011 26.4788 614.041 26.7455C614.071 27.0061 614.086 27.2364 614.086 27.4364C614.086 28.0545 613.983 28.597 613.777 29.0636C613.577 29.5242 613.314 29.9091 612.986 30.2182C612.659 30.5212 612.289 30.7485 611.877 30.9C611.465 31.0515 611.05 31.1303 610.632 31.1364C609.505 31.1364 608.614 30.8394 607.959 30.2455C607.626 30.5545 607.256 30.7788 606.85 30.9182C606.45 31.0515 606.038 31.1182 605.614 31.1182Z" fill="#001219"/>
<rect x="417.5" y="11.5" width="94" height="31" rx="15.5" fill="#FDFFFC" stroke="#E5E5E5"/>
<path d="M442.281 24.9668L437.934 29.3135C437.001 30.2468 437.001 30.2468 436.067 29.3135L431.721 24.9668" stroke="#11181C" stroke-miterlimit="10" stroke-linecap="round" stroke-linejoin="round"/>
<path d="M79.0332 32.2807L74.6865 27.934C73.7532 27.0007 73.7532 27.0007 74.6865 26.0674L79.0332 21.7207" stroke="#3772FF" stroke-miterlimit="10" stroke-linecap="round" stroke-linejoin="round"/>
<path d="M94.9313 30.0955H94.6895C94.5156 30.0955 94.3501 30.0848 94.1932 30.0636C94.0404 30.0424 93.8898 29.983 93.7413 29.8855C93.6904 30.4327 93.5653 30.9291 93.3659 31.3745C93.1665 31.82 92.8992 32.1997 92.5641 32.5136C92.2332 32.8318 91.8365 33.0779 91.3741 33.2518C90.9117 33.4258 90.392 33.5127 89.815 33.5127H89.0195V31.9282H89.815C90.2223 31.9282 90.5744 31.8858 90.8713 31.8009C91.1683 31.7161 91.4123 31.5803 91.6032 31.3936C91.7941 31.207 91.9362 30.963 92.0295 30.6618C92.1229 30.3648 92.1695 30.0021 92.1695 29.5736V25.6982H93.7541V27.6009C93.7541 27.7961 93.7944 27.953 93.875 28.0718C93.9598 28.1906 94.0553 28.2839 94.1613 28.3518C94.2717 28.4155 94.3777 28.4579 94.4795 28.4791C94.5813 28.5003 94.6513 28.5109 94.6895 28.5109H94.9313V30.0955ZM101.51 28.5109V30.0955H100.568C100.208 30.0955 99.8788 30.0467 99.5818 29.9491C99.2849 29.8515 99.0346 29.7073 98.8309 29.5164C98.5933 29.7158 98.3112 29.8621 97.9846 29.9555C97.6621 30.0488 97.293 30.0955 96.8773 30.0955H94.6755V28.5109H96.8773C97.1361 28.5109 97.3418 28.4876 97.4946 28.4409C97.6515 28.39 97.7682 28.3285 97.8446 28.2564C97.9252 28.1842 97.9761 28.1036 97.9973 28.0145C98.0227 27.9255 98.0355 27.8385 98.0355 27.7536V25.6918H99.6136V27.7091C99.6136 27.9 99.6561 28.0506 99.7409 28.1609C99.8258 28.267 99.9212 28.3476 100.027 28.4027C100.138 28.4536 100.246 28.4855 100.352 28.4982C100.458 28.5067 100.53 28.5109 100.568 28.5109H101.51ZM99.3527 24.05L98.2836 22.9682L99.34 21.8736L100.435 22.9682L99.3527 24.05ZM96.6864 24.0564L95.6173 22.9745L96.6673 21.88L97.7618 22.9745L96.6864 24.0564ZM101.252 28.5109H102.073C102.323 28.5109 102.524 28.4897 102.677 28.4473C102.834 28.4048 102.955 28.3433 103.04 28.2627C103.129 28.1779 103.188 28.0761 103.218 27.9573C103.248 27.8385 103.263 27.7027 103.263 27.55V25.6982H104.847V27.5182C104.847 27.8618 104.93 28.1121 105.095 28.2691C105.261 28.4261 105.522 28.5067 105.878 28.5109C105.942 28.5067 106.018 28.4939 106.107 28.4727C106.2 28.4515 106.29 28.4091 106.374 28.3455C106.463 28.2776 106.538 28.1821 106.597 28.0591C106.661 27.9318 106.693 27.7621 106.693 27.55V25.6982H108.271V27.5182C108.271 27.8661 108.353 28.1185 108.519 28.2755C108.684 28.4324 108.954 28.5109 109.327 28.5109C109.429 28.5109 109.529 28.4961 109.626 28.4664C109.728 28.4324 109.819 28.3794 109.9 28.3073C109.98 28.2309 110.046 28.1333 110.097 28.0145C110.148 27.8958 110.178 27.7494 110.186 27.5755V25.6982H111.771V27.5818C111.779 27.9085 111.879 28.1461 112.07 28.2945C112.261 28.4388 112.553 28.5109 112.948 28.5109H113.572V30.0955H112.948C112.511 30.0955 112.131 30.0488 111.809 29.9555C111.486 29.8579 111.209 29.7009 110.975 29.4845C110.759 29.6839 110.504 29.8367 110.212 29.9427C109.923 30.0445 109.628 30.0955 109.327 30.0955C108.928 30.0955 108.578 30.0467 108.277 29.9491C107.98 29.8515 107.715 29.6945 107.482 29.4782C107.261 29.6733 107.013 29.8239 106.737 29.93C106.466 30.0361 106.19 30.0912 105.91 30.0955H105.865C105.483 30.0955 105.144 30.0445 104.847 29.9427C104.55 29.8367 104.291 29.6903 104.071 29.5036C103.574 29.8982 102.908 30.0955 102.073 30.0955H101.252V28.5109ZM107.303 23.0636L106.222 24.1582L105.14 23.0764L106.222 21.9818L107.303 23.0636ZM110.033 23.0382L108.964 24.12L107.851 23.0509L108.945 21.9564L110.033 23.0382ZM108.627 21.2436L107.609 22.2618L106.603 21.2564L107.622 20.2382L108.627 21.2436ZM120.158 28.5109V30.0955H119.217C118.856 30.0955 118.527 30.0467 118.23 29.9491C117.933 29.8515 117.683 29.7073 117.479 29.5164C117.242 29.7158 116.96 29.8621 116.633 29.9555C116.311 30.0488 115.941 30.0955 115.526 30.0955H113.324V28.5109H115.526C115.785 28.5109 115.99 28.4876 116.143 28.4409C116.3 28.39 116.417 28.3285 116.493 28.2564C116.574 28.1842 116.625 28.1036 116.646 28.0145C116.671 27.9255 116.684 27.8385 116.684 27.7536V25.6918H118.262V27.7091C118.262 27.9 118.305 28.0506 118.389 28.1609C118.474 28.267 118.57 28.3476 118.676 28.4027C118.786 28.4536 118.894 28.4855 119 28.4982C119.106 28.5067 119.178 28.5109 119.217 28.5109H120.158ZM117.613 33.5955L116.544 32.5136L117.6 31.4191L118.695 32.5136L117.613 33.5955ZM114.947 33.6018L113.878 32.52L114.928 31.4255L116.022 32.52L114.947 33.6018ZM123.578 24.75C123.587 24.7797 123.604 24.8497 123.629 24.96C123.659 25.0703 123.691 25.2061 123.725 25.3673C123.759 25.5242 123.792 25.7003 123.826 25.8955C123.865 26.0906 123.899 26.2879 123.928 26.4873C123.962 26.6824 123.988 26.8733 124.005 27.06C124.026 27.2467 124.036 27.41 124.036 27.55C124.036 27.987 123.964 28.3667 123.82 28.6891C123.676 29.0073 123.487 29.2703 123.254 29.4782C123.02 29.6861 122.757 29.8409 122.465 29.9427C122.176 30.0445 121.886 30.0955 121.593 30.0955H119.9V28.5109H121.637C121.688 28.5109 121.76 28.5045 121.854 28.4918C121.951 28.4748 122.047 28.4345 122.14 28.3709C122.238 28.3073 122.322 28.2118 122.395 28.0845C122.467 27.953 122.503 27.7748 122.503 27.55C122.503 27.4567 122.494 27.3442 122.477 27.2127C122.465 27.077 122.446 26.9327 122.42 26.78C122.395 26.6273 122.365 26.4724 122.331 26.3155C122.301 26.1542 122.272 26.0036 122.242 25.8636C122.212 25.7194 122.182 25.59 122.153 25.4755C122.123 25.3567 122.1 25.2655 122.083 25.2018L123.578 24.75ZM120.797 32.31L121.943 31.1518L123.114 32.3227L121.956 33.4809L120.797 32.31ZM132.094 30.0955C131.686 30.0955 131.311 30.0382 130.967 29.9236C130.628 29.8048 130.335 29.6394 130.089 29.4273C129.843 29.2109 129.65 28.9542 129.51 28.6573C129.374 28.3603 129.306 28.0315 129.306 27.6709C129.306 27.3145 129.351 26.9964 129.44 26.7164C129.529 26.4321 129.648 26.1691 129.796 25.9273C129.949 25.6812 130.125 25.4479 130.325 25.2273C130.528 25.0024 130.743 24.7712 130.967 24.5336L130.566 24.0818L131.737 23.0191C131.784 23.0742 131.839 23.1358 131.903 23.2036C131.966 23.2715 132.03 23.3415 132.094 23.4136C132.162 23.4858 132.227 23.5558 132.291 23.6236C132.355 23.6915 132.412 23.753 132.463 23.8082C132.768 24.1348 133.065 24.453 133.354 24.7627C133.646 25.0682 133.905 25.3758 134.13 25.6855C134.359 25.9909 134.544 26.2985 134.684 26.6082C134.815 26.9136 134.881 27.2276 134.881 27.55V27.5818C134.877 27.9552 134.803 28.2903 134.658 28.5873C134.514 28.88 134.304 29.1515 134.028 29.4018C133.774 29.6182 133.483 29.7879 133.156 29.9109C132.834 30.0339 132.48 30.0955 132.094 30.0955ZM132.017 25.5073C131.848 25.6982 131.686 25.8785 131.534 26.0482C131.385 26.2179 131.256 26.3876 131.146 26.5573C131.04 26.727 130.959 26.9009 130.904 27.0791C130.853 27.2276 130.827 27.3888 130.827 27.5627C130.827 27.5967 130.83 27.6327 130.834 27.6709C130.846 27.8279 130.893 27.9636 130.974 28.0782C131.054 28.1885 131.154 28.2818 131.273 28.3582C131.392 28.4303 131.523 28.4833 131.667 28.5173C131.812 28.5512 131.954 28.5682 132.094 28.5682C132.255 28.5682 132.41 28.5448 132.558 28.4982C132.707 28.4515 132.836 28.3858 132.946 28.3009C133.061 28.2161 133.152 28.1121 133.22 27.9891C133.288 27.8661 133.322 27.7303 133.322 27.5818C133.322 27.3994 133.286 27.2212 133.214 27.0473C133.142 26.8733 133.044 26.7015 132.921 26.5318C132.802 26.3621 132.664 26.1924 132.507 26.0227C132.35 25.853 132.187 25.6812 132.017 25.5073ZM143.103 30.0955H142.587C142.023 30.0955 141.484 29.8473 140.971 29.3509C140.831 29.5164 140.663 29.6542 140.468 29.7645C140.277 29.8706 140.072 29.9555 139.851 30.0191C139.63 30.0827 139.406 30.1273 139.176 30.1527C138.952 30.1782 138.735 30.1909 138.527 30.1909C138.366 30.1909 138.203 30.1803 138.037 30.1591C137.872 30.1421 137.683 30.1103 137.471 30.0636C137.263 30.0212 137.023 29.9639 136.752 29.8918C136.48 29.8155 136.156 29.72 135.778 29.6055L136.236 28.0845C136.495 28.1864 136.762 28.2776 137.038 28.3582C137.314 28.4345 137.583 28.4982 137.846 28.5491C138.109 28.5958 138.362 28.6255 138.604 28.6382C138.701 28.6467 138.795 28.6509 138.884 28.6509C139.015 28.6509 139.157 28.6403 139.31 28.6191C139.463 28.5979 139.605 28.5533 139.736 28.4855C139.872 28.4133 139.963 28.3179 140.01 28.1991C140.031 28.1482 140.042 28.1015 140.042 28.0591C140.042 28.0209 140.029 27.9742 140.004 27.9191C139.982 27.8639 139.946 27.7982 139.896 27.7218C139.845 27.6412 139.779 27.5373 139.698 27.41L137.439 24.2345L138.776 23.3755L141.047 26.8182C141.17 27.0048 141.3 27.1979 141.436 27.3973C141.571 27.5967 141.707 27.7791 141.843 27.9445C141.979 28.1058 142.11 28.2394 142.237 28.3455C142.365 28.4515 142.481 28.5045 142.587 28.5045H143.103V30.0955ZM149.021 23.14C149.296 23.5048 149.576 23.8739 149.861 24.2473C149.979 24.4085 150.105 24.5761 150.236 24.75C150.372 24.9239 150.508 25.1021 150.643 25.2845C150.783 25.4627 150.919 25.6409 151.051 25.8191C151.182 25.9973 151.309 26.167 151.432 26.3282C151.695 26.6803 151.867 27.0642 151.948 27.48C151.973 27.6285 151.986 27.777 151.986 27.9255C151.986 28.1927 151.941 28.46 151.852 28.7273C151.768 28.9818 151.642 29.2152 151.477 29.4273C151.316 29.6394 151.118 29.8218 150.885 29.9745C150.652 30.1273 150.385 30.2461 150.083 30.3309C149.782 30.4158 149.451 30.4582 149.091 30.4582C148.785 30.4582 148.469 30.4264 148.142 30.3627C147.816 30.3033 147.483 30.1888 147.143 30.0191C147.067 29.9852 146.993 29.9512 146.921 29.9173C146.857 29.8876 146.791 29.8579 146.723 29.8282C146.655 29.7942 146.598 29.7645 146.551 29.7391C146.144 29.8621 145.692 29.9512 145.196 30.0064C144.704 30.0658 144.159 30.0955 143.561 30.0955H142.841V28.5109H143.561C143.679 28.5109 143.783 28.513 143.872 28.5173C143.966 28.5173 144.055 28.5173 144.14 28.5173C144.22 28.5173 144.301 28.5152 144.381 28.5109C144.466 28.5067 144.56 28.4982 144.661 28.4855C144.551 28.3582 144.451 28.2352 144.362 28.1164C144.278 27.9933 144.203 27.8661 144.14 27.7345C144.08 27.5988 144.034 27.4567 144 27.3082C143.97 27.1555 143.955 26.9879 143.955 26.8055C143.955 26.4576 144.021 26.1373 144.152 25.8445C144.288 25.5518 144.473 25.3015 144.706 25.0936C144.944 24.8858 145.219 24.7245 145.533 24.61C145.851 24.4912 146.193 24.4318 146.558 24.4318C146.969 24.4318 147.334 24.5145 147.652 24.68C147.975 24.8412 148.244 25.047 148.461 25.2973C148.681 25.5433 148.847 25.8106 148.957 26.0991C149.071 26.3876 149.129 26.657 149.129 26.9073C149.129 27.1109 149.108 27.2976 149.065 27.4673C149.027 27.637 148.972 27.7982 148.9 27.9509C148.828 28.0994 148.738 28.2415 148.632 28.3773C148.526 28.513 148.408 28.6467 148.276 28.7782C148.408 28.8206 148.543 28.8609 148.683 28.8991C148.823 28.933 148.959 28.95 149.091 28.95C149.222 28.95 149.36 28.9415 149.504 28.9245C149.648 28.9033 149.784 28.8652 149.911 28.81C150.043 28.7506 150.158 28.67 150.255 28.5682C150.357 28.4664 150.433 28.3327 150.484 28.1673C150.501 28.1079 150.51 28.0464 150.51 27.9827C150.51 27.8682 150.476 27.7218 150.408 27.5436C150.34 27.3655 150.215 27.1385 150.032 26.8627C149.854 26.587 149.631 26.2836 149.364 25.9527C149.097 25.6176 148.804 25.2527 148.486 24.8582L147.824 24.0373L149.021 23.14ZM145.457 26.8055C145.457 26.9624 145.48 27.1024 145.527 27.2255C145.578 27.3442 145.652 27.4545 145.75 27.5564C145.851 27.6582 145.975 27.7579 146.119 27.8555C146.267 27.9488 146.439 28.0485 146.634 28.1545C146.766 28.0909 146.893 28.0188 147.016 27.9382C147.139 27.8576 147.245 27.7685 147.334 27.6709C147.428 27.5691 147.502 27.4567 147.557 27.3336C147.612 27.2106 147.64 27.0748 147.64 26.9264C147.64 26.7482 147.601 26.5912 147.525 26.4555C147.449 26.3197 147.355 26.2073 147.245 26.1182C147.135 26.0291 147.016 25.9633 146.889 25.9209C146.766 25.8785 146.655 25.8573 146.558 25.8573C146.414 25.8573 146.274 25.8827 146.138 25.9336C146.006 25.9845 145.89 26.0545 145.788 26.1436C145.686 26.2285 145.605 26.3282 145.546 26.4427C145.487 26.5573 145.457 26.6782 145.457 26.8055ZM156.754 30.0955C156.288 30.0955 155.887 30.0658 155.552 30.0064C155.216 29.9512 154.934 29.8685 154.705 29.7582C154.476 29.6436 154.292 29.4994 154.152 29.3255C154.016 29.1515 153.912 28.9479 153.84 28.7145C153.768 28.4812 153.719 28.2182 153.693 27.9255C153.672 27.6285 153.662 27.3018 153.662 26.9455V20.9191H155.246V26.9455C155.246 27.2848 155.257 27.5564 155.278 27.76C155.303 27.9636 155.365 28.1227 155.463 28.2373C155.564 28.3476 155.715 28.4218 155.914 28.46C156.118 28.4939 156.398 28.5109 156.754 28.5109V30.0955ZM156.5 28.5109H157.321C157.571 28.5109 157.772 28.4897 157.925 28.4473C158.082 28.4048 158.203 28.3433 158.288 28.2627C158.377 28.1779 158.436 28.0761 158.466 27.9573C158.496 27.8385 158.511 27.7027 158.511 27.55V25.6982H160.095V27.5182C160.095 27.8618 160.178 28.1121 160.343 28.2691C160.509 28.4261 160.77 28.5067 161.126 28.5109C161.19 28.5067 161.266 28.4939 161.355 28.4727C161.448 28.4515 161.538 28.4091 161.622 28.3455C161.711 28.2776 161.786 28.1821 161.845 28.0591C161.909 27.9318 161.941 27.7621 161.941 27.55V25.6982H163.519V27.5182C163.519 27.8661 163.601 28.1185 163.767 28.2755C163.932 28.4324 164.202 28.5109 164.575 28.5109C164.677 28.5109 164.777 28.4961 164.874 28.4664C164.976 28.4324 165.067 28.3794 165.148 28.3073C165.228 28.2309 165.294 28.1333 165.345 28.0145C165.396 27.8958 165.426 27.7494 165.434 27.5755V25.6982H167.019V27.5818C167.027 27.9085 167.127 28.1461 167.318 28.2945C167.509 28.4388 167.801 28.5109 168.196 28.5109H168.82V30.0955H168.196C167.759 30.0955 167.379 30.0488 167.057 29.9555C166.735 29.8579 166.457 29.7009 166.223 29.4845C166.007 29.6839 165.752 29.8367 165.46 29.9427C165.171 30.0445 164.876 30.0955 164.575 30.0955C164.176 30.0955 163.826 30.0467 163.525 29.9491C163.228 29.8515 162.963 29.6945 162.73 29.4782C162.509 29.6733 162.261 29.8239 161.985 29.93C161.714 30.0361 161.438 30.0912 161.158 30.0955H161.113C160.731 30.0955 160.392 30.0445 160.095 29.9427C159.798 29.8367 159.539 29.6903 159.319 29.5036C158.822 29.8982 158.156 30.0955 157.321 30.0955H156.5V28.5109ZM162.551 23.0636L161.47 24.1582L160.388 23.0764L161.47 21.9818L162.551 23.0636ZM165.281 23.0382L164.212 24.12L163.099 23.0509L164.193 21.9564L165.281 23.0382ZM163.875 21.2436L162.857 22.2618L161.851 21.2564L162.87 20.2382L163.875 21.2436ZM173.294 28.8927C173.332 28.8927 173.391 28.8864 173.472 28.8736C173.557 28.8567 173.642 28.81 173.726 28.7336C173.811 28.6573 173.886 28.5406 173.949 28.3836C174.017 28.2224 174.051 27.9976 174.051 27.7091C174.051 27.5988 174.03 27.4588 173.987 27.2891C173.949 27.1152 173.879 26.9476 173.777 26.7864C173.68 26.6209 173.546 26.4809 173.376 26.3664C173.211 26.2476 173.001 26.1882 172.746 26.1882C172.526 26.1882 172.346 26.2539 172.206 26.3855C172.066 26.517 171.947 26.6803 171.849 26.8755C171.756 27.0706 171.675 27.2827 171.607 27.5118C171.544 27.7367 171.474 27.9424 171.397 28.1291C171.554 28.2182 171.72 28.3094 171.894 28.4027C172.072 28.4918 172.246 28.5724 172.416 28.6445C172.585 28.7167 172.744 28.7761 172.893 28.8227C173.046 28.8694 173.179 28.8927 173.294 28.8927ZM172.746 24.61C173.192 24.61 173.58 24.6927 173.911 24.8582C174.246 25.0236 174.522 25.2464 174.738 25.5264C174.959 25.8021 175.122 26.1224 175.228 26.4873C175.339 26.8521 175.394 27.2339 175.394 27.6327C175.394 28.0739 175.356 28.4494 175.279 28.7591C175.203 29.0688 175.101 29.3255 174.974 29.5291C174.851 29.7327 174.709 29.8918 174.547 30.0064C174.39 30.1252 174.231 30.2121 174.07 30.2673C173.913 30.3267 173.76 30.3627 173.612 30.3755C173.463 30.3924 173.336 30.4009 173.23 30.4009C173.018 30.4009 172.816 30.3797 172.626 30.3373C172.435 30.2991 172.24 30.2418 172.04 30.1655C171.845 30.0933 171.641 30.0042 171.429 29.8982C171.217 29.7879 170.986 29.6648 170.736 29.5291C170.545 29.7327 170.339 29.8791 170.118 29.9682C169.902 30.053 169.647 30.0955 169.355 30.0955H168.572L168.559 28.5109H169.355C169.448 28.5109 169.529 28.4833 169.596 28.4282C169.669 28.373 169.732 28.2967 169.787 28.1991C169.847 28.0973 169.9 27.9764 169.946 27.8364C169.997 27.6921 170.048 27.533 170.099 27.3591C170.184 27.0536 170.286 26.7397 170.405 26.4173C170.523 26.0906 170.68 25.7936 170.876 25.5264C171.075 25.2591 171.325 25.0406 171.626 24.8709C171.928 24.697 172.301 24.61 172.746 24.61Z" fill="#3772FF"/>
<path d="M472.904 31.1091H472.7C472.322 31.1091 471.958 31.0727 471.609 31C471.26 30.9321 470.938 30.8279 470.642 30.6873C470.346 30.5418 470.082 30.3576 469.849 30.1345C469.621 29.9115 469.435 29.6473 469.289 29.3418C469.173 29.5212 469.023 29.6812 468.838 29.8218C468.659 29.9576 468.463 30.0715 468.249 30.1636C468.036 30.2558 467.815 30.3261 467.588 30.3745C467.36 30.4182 467.141 30.44 466.933 30.44C466.545 30.44 466.177 30.3721 465.828 30.2364C465.483 30.1006 465.18 29.9091 464.918 29.6618C464.657 29.4097 464.448 29.1042 464.293 28.7455C464.143 28.3867 464.068 27.9818 464.068 27.5309C464.068 27.0073 464.167 26.5467 464.366 26.1491C464.565 25.7515 464.829 25.4048 465.158 25.1091C465.488 24.8085 465.866 24.5539 466.293 24.3455C466.725 24.1321 467.171 23.9479 467.631 23.7927L467.457 23.0945L469.231 22.68L470.555 27.8291C470.632 28.1442 470.758 28.3988 470.933 28.5927C471.108 28.7818 471.297 28.9297 471.5 29.0364C471.709 29.1382 471.92 29.2085 472.133 29.2473C472.351 29.2812 472.54 29.2982 472.7 29.2982H472.904V31.1091ZM468.424 27.4945C468.448 27.3927 468.46 27.2885 468.46 27.1818C468.46 27.1479 468.455 27.0897 468.446 27.0073C468.441 26.92 468.421 26.7988 468.388 26.6436C468.354 26.4885 468.308 26.3212 468.249 26.1418C468.196 25.9624 468.138 25.7612 468.075 25.5382C467.299 25.7855 466.71 26.0667 466.308 26.3818C465.91 26.6921 465.711 27.0776 465.711 27.5382C465.711 27.7176 465.75 27.8776 465.828 28.0182C465.91 28.1588 466.014 28.2752 466.14 28.3673C466.271 28.4594 466.417 28.5248 466.577 28.5636C466.678 28.5927 466.78 28.6073 466.882 28.6073C466.935 28.6073 466.991 28.6024 467.049 28.5927C467.413 28.5394 467.716 28.4327 467.958 28.2727C468.201 28.1079 468.356 27.8485 468.424 27.4945ZM480.431 29.2982V31.1091H479.355C478.943 31.1091 478.567 31.0533 478.227 30.9418C477.888 30.8303 477.602 30.6655 477.369 30.4473C477.098 30.6752 476.775 30.8424 476.402 30.9491C476.034 31.0558 475.612 31.1091 475.137 31.1091H472.62V29.2982H475.137C475.432 29.2982 475.667 29.2715 475.842 29.2182C476.021 29.16 476.155 29.0897 476.242 29.0073C476.334 28.9248 476.392 28.8327 476.417 28.7309C476.446 28.6291 476.46 28.5297 476.46 28.4327V26.0764H478.264V28.3818C478.264 28.6 478.312 28.7721 478.409 28.8982C478.506 29.0194 478.615 29.1115 478.737 29.1745C478.863 29.2327 478.986 29.2691 479.107 29.2836C479.229 29.2933 479.311 29.2982 479.355 29.2982H480.431ZM477.966 24.2L476.744 22.9636L477.951 21.7127L479.202 22.9636L477.966 24.2ZM474.918 24.2073L473.697 22.9709L474.897 21.72L476.147 22.9709L474.918 24.2073ZM484.31 24.6945C484.761 24.6945 485.164 24.777 485.518 24.9418C485.876 25.1067 486.179 25.3248 486.427 25.5964C486.674 25.863 486.863 26.1685 486.994 26.5127C487.125 26.857 487.19 27.2109 487.19 27.5745C487.19 27.7782 487.178 27.9576 487.154 28.1127C487.13 28.263 487.091 28.4036 487.038 28.5345C486.989 28.6606 486.929 28.7842 486.856 28.9055C486.783 29.0218 486.698 29.1479 486.601 29.2836C486.689 29.2885 486.783 29.2933 486.885 29.2982C486.992 29.2982 487.096 29.2982 487.198 29.2982C487.304 29.2982 487.406 29.2982 487.503 29.2982C487.6 29.2982 487.685 29.2982 487.758 29.2982H488.281V31.1091H487.758C487.447 31.1091 487.13 31.0994 486.805 31.08C486.485 31.0606 486.17 31.0339 485.859 31C485.554 30.9612 485.263 30.9176 484.987 30.8691C484.71 30.8158 484.463 30.7576 484.245 30.6945C483.804 30.8206 483.309 30.9224 482.761 31C482.213 31.0727 481.588 31.1091 480.885 31.1091H480.121V29.2982H480.885C481.016 29.2982 481.12 29.3006 481.198 29.3055C481.275 29.3055 481.345 29.3055 481.409 29.3055C481.472 29.3055 481.537 29.3055 481.605 29.3055C481.673 29.3006 481.758 29.2933 481.859 29.2836C481.656 29.0121 481.501 28.743 481.394 28.4764C481.287 28.2097 481.234 27.9091 481.234 27.5745C481.234 27.1915 481.314 26.8255 481.474 26.4764C481.634 26.1273 481.852 25.8218 482.129 25.56C482.41 25.2933 482.737 25.0824 483.11 24.9273C483.484 24.7721 483.884 24.6945 484.31 24.6945ZM482.95 27.5891C482.95 27.9333 483.072 28.2267 483.314 28.4691C483.556 28.7115 483.872 28.9079 484.259 29.0582C484.444 28.9855 484.613 28.903 484.769 28.8109C484.924 28.7188 485.057 28.6145 485.169 28.4982C485.285 28.377 485.375 28.2412 485.438 28.0909C485.505 27.9358 485.539 27.7636 485.539 27.5745C485.539 27.4582 485.51 27.337 485.452 27.2109C485.394 27.0848 485.312 26.9709 485.205 26.8691C485.098 26.7624 484.97 26.6752 484.819 26.6073C484.669 26.5394 484.499 26.5055 484.31 26.5055C484.097 26.5055 483.905 26.537 483.736 26.6C483.566 26.6582 483.423 26.7382 483.307 26.84C483.19 26.937 483.101 27.0509 483.038 27.1818C482.979 27.3127 482.95 27.4485 482.95 27.5891ZM482.929 21.6182L484.238 20.2945L485.576 21.6327L484.252 22.9564L482.929 21.6182ZM495.041 23.16C495.357 23.577 495.677 23.9988 496.001 24.4255C496.137 24.6097 496.28 24.8012 496.43 25C496.586 25.1988 496.741 25.4024 496.896 25.6109C497.056 25.8145 497.211 26.0182 497.361 26.2218C497.512 26.4255 497.657 26.6194 497.798 26.8036C498.098 27.2061 498.295 27.6448 498.387 28.12C498.416 28.2897 498.43 28.4594 498.43 28.6291C498.43 28.9345 498.38 29.24 498.278 29.5455C498.181 29.8364 498.038 30.103 497.849 30.3455C497.664 30.5879 497.439 30.7964 497.172 30.9709C496.906 31.1455 496.6 31.2812 496.256 31.3782C495.912 31.4752 495.533 31.5236 495.121 31.5236C494.772 31.5236 494.411 31.4873 494.038 31.4145C493.664 31.3467 493.284 31.2158 492.896 31.0218C492.809 30.983 492.724 30.9442 492.641 30.9055C492.569 30.8715 492.493 30.8376 492.416 30.8036C492.338 30.7648 492.273 30.7309 492.22 30.7018C491.754 30.8424 491.238 30.9442 490.67 31.0073C490.108 31.0752 489.485 31.1091 488.801 31.1091H487.98V29.2982H488.801C488.937 29.2982 489.056 29.3006 489.158 29.3055C489.264 29.3055 489.366 29.3055 489.463 29.3055C489.555 29.3055 489.647 29.303 489.74 29.2982C489.837 29.2933 489.943 29.2836 490.06 29.2691C489.933 29.1236 489.82 28.983 489.718 28.8473C489.621 28.7067 489.536 28.5612 489.463 28.4109C489.395 28.2558 489.342 28.0933 489.303 27.9236C489.269 27.7491 489.252 27.5576 489.252 27.3491C489.252 26.9515 489.327 26.5855 489.478 26.2509C489.633 25.9164 489.844 25.6303 490.11 25.3927C490.382 25.1552 490.697 24.9709 491.056 24.84C491.42 24.7042 491.81 24.6364 492.227 24.6364C492.697 24.6364 493.114 24.7309 493.478 24.92C493.846 25.1042 494.154 25.3394 494.401 25.6255C494.653 25.9067 494.843 26.2121 494.969 26.5418C495.1 26.8715 495.165 27.1794 495.165 27.4655C495.165 27.6982 495.141 27.9115 495.092 28.1055C495.049 28.2994 494.986 28.4836 494.903 28.6582C494.821 28.8279 494.719 28.9903 494.598 29.1455C494.477 29.3006 494.341 29.4533 494.19 29.6036C494.341 29.6521 494.496 29.6982 494.656 29.7418C494.816 29.7806 494.971 29.8 495.121 29.8C495.272 29.8 495.429 29.7903 495.594 29.7709C495.759 29.7467 495.914 29.703 496.06 29.64C496.21 29.5721 496.341 29.48 496.452 29.3636C496.569 29.2473 496.656 29.0945 496.714 28.9055C496.733 28.8376 496.743 28.7673 496.743 28.6945C496.743 28.5636 496.704 28.3964 496.627 28.1927C496.549 27.9891 496.406 27.7297 496.198 27.4145C495.994 27.0994 495.74 26.7527 495.434 26.3745C495.129 25.9915 494.794 25.5745 494.43 25.1236L493.674 24.1855L495.041 23.16ZM490.969 27.3491C490.969 27.5285 490.995 27.6885 491.049 27.8291C491.107 27.9648 491.192 28.0909 491.303 28.2073C491.42 28.3236 491.56 28.4376 491.725 28.5491C491.895 28.6558 492.091 28.7697 492.314 28.8909C492.464 28.8182 492.61 28.7358 492.75 28.6436C492.891 28.5515 493.012 28.4497 493.114 28.3382C493.221 28.2218 493.306 28.0933 493.369 27.9527C493.432 27.8121 493.463 27.657 493.463 27.4873C493.463 27.2836 493.42 27.1042 493.332 26.9491C493.245 26.7939 493.138 26.6655 493.012 26.5636C492.886 26.4618 492.75 26.3867 492.605 26.3382C492.464 26.2897 492.338 26.2655 492.227 26.2655C492.062 26.2655 491.902 26.2945 491.747 26.3527C491.597 26.4109 491.463 26.4909 491.347 26.5927C491.23 26.6897 491.138 26.8036 491.07 26.9345C491.003 27.0655 490.969 27.2036 490.969 27.3491Z" fill="#001219"/>
<path d="M77 267L82.1333 266.968C87.2667 266.936 97.5333 266.871 107.8 247.443C118.067 228.014 128.333 189.221 138.6 182.04C148.867 174.86 159.133 199.291 169.4 203.888C179.667 208.485 189.933 193.247 200.2 174.77C210.467 156.293 220.733 134.576 231 124.778C241.267 114.981 251.533 117.102 261.8 120.542C272.067 123.983 282.333 128.745 292.6 136.662C302.867 144.58 313.133 155.655 323.4 160.101C333.667 164.547 343.933 162.365 354.2 151.91C364.467 141.455 374.733 122.727 379.867 113.364L385 104" stroke="#14E21C" stroke-width="4" stroke-linecap="round"/>
<path d="M409.938 246.333C409.938 244.784 410.434 243.513 411.427 242.52C412.43 241.527 413.739 241.031 415.354 241.031C417.001 241.031 418.316 241.527 419.298 242.52C420.29 243.513 420.787 244.811 420.787 246.415V247.675C420.787 249.213 420.29 250.478 419.298 251.471C418.316 252.453 417.012 252.944 415.387 252.944C413.805 252.944 412.501 252.458 411.476 251.487C410.45 250.516 409.938 249.213 409.938 247.576V246.333ZM412.932 247.675C412.932 248.493 413.156 249.153 413.603 249.655C414.061 250.145 414.656 250.391 415.387 250.391C416.118 250.391 416.707 250.145 417.154 249.655C417.601 249.153 417.825 248.471 417.825 247.609V246.333C417.825 245.525 417.596 244.871 417.138 244.369C416.69 243.856 416.101 243.6 415.37 243.6C414.629 243.6 414.034 243.856 413.587 244.369C413.15 244.882 412.932 245.553 412.932 246.382V247.675ZM422.243 260.733C422.243 259.162 422.75 257.891 423.765 256.92C424.79 255.938 426.094 255.447 427.676 255.447C429.269 255.447 430.572 255.938 431.587 256.92C432.601 257.891 433.109 259.2 433.109 260.847V262.091C433.109 263.618 432.618 264.878 431.636 265.871C430.665 266.853 429.361 267.344 427.725 267.344C426.078 267.344 424.752 266.858 423.749 265.887C422.745 264.905 422.243 263.613 422.243 262.009V260.733ZM425.238 262.091C425.238 262.887 425.467 263.542 425.925 264.055C426.394 264.567 426.989 264.824 427.709 264.824C428.461 264.824 429.05 264.584 429.476 264.104C429.912 263.613 430.13 262.925 430.13 262.042V260.733C430.13 259.904 429.901 259.244 429.443 258.753C428.985 258.262 428.396 258.016 427.676 258.016C426.956 258.016 426.367 258.262 425.909 258.753C425.461 259.244 425.238 259.925 425.238 260.798V262.091ZM416.27 265.085L414.078 263.825L426.579 243.813L428.772 245.073L416.27 265.085ZM453.77 267H436.555V264.071L445.081 254.76C446.313 253.396 447.186 252.256 447.699 251.34C448.222 250.413 448.484 249.485 448.484 248.558C448.484 247.336 448.141 246.355 447.453 245.613C446.777 244.86 445.855 244.484 444.688 244.484C443.313 244.484 442.244 244.909 441.481 245.76C440.717 246.6 440.335 247.751 440.335 249.213H436.064C436.064 247.653 436.419 246.251 437.128 245.007C437.837 243.753 438.852 242.782 440.172 242.095C441.492 241.396 443.013 241.047 444.737 241.047C447.213 241.047 449.172 241.675 450.612 242.929C452.052 244.173 452.772 245.896 452.772 248.1C452.772 249.376 452.406 250.718 451.675 252.125C450.955 253.522 449.777 255.109 448.141 256.887L441.89 263.596H453.77V267ZM459.929 262.189C460.791 262.189 461.451 262.429 461.909 262.909C462.378 263.389 462.612 263.989 462.612 264.709C462.612 265.429 462.378 266.024 461.909 266.493C461.451 266.962 460.791 267.196 459.929 267.196C459.132 267.196 458.494 266.967 458.014 266.509C457.534 266.04 457.294 265.44 457.294 264.709C457.294 263.989 457.523 263.389 457.982 262.909C458.451 262.429 459.1 262.189 459.929 262.189ZM468.216 254.302L469.607 241.407H483.353V245.105H473.158L472.454 251.209C473.633 250.533 474.969 250.195 476.464 250.195C478.896 250.195 480.789 250.975 482.142 252.535C483.494 254.095 484.171 256.189 484.171 258.818C484.171 261.425 483.418 263.498 481.913 265.036C480.418 266.575 478.367 267.344 475.76 267.344C473.414 267.344 471.467 266.684 469.918 265.364C468.38 264.033 467.551 262.276 467.431 260.095H471.554C471.718 261.338 472.16 262.293 472.88 262.958C473.611 263.613 474.565 263.94 475.744 263.94C477.053 263.94 478.073 263.471 478.804 262.533C479.534 261.595 479.9 260.318 479.9 258.704C479.9 257.144 479.496 255.911 478.689 255.005C477.882 254.1 476.769 253.647 475.351 253.647C474.576 253.647 473.916 253.751 473.371 253.958C472.836 254.155 472.253 254.553 471.62 255.153L468.216 254.302ZM492.474 252.256H495.075C496.384 252.245 497.421 251.907 498.184 251.242C498.959 250.565 499.346 249.595 499.346 248.329C499.346 247.107 499.024 246.164 498.381 245.498C497.748 244.822 496.777 244.484 495.468 244.484C494.312 244.484 493.363 244.816 492.621 245.482C491.89 246.136 491.524 246.998 491.524 248.067H487.254C487.254 246.758 487.603 245.564 488.301 244.484C488.999 243.404 489.97 242.564 491.214 241.964C492.468 241.353 493.864 241.047 495.403 241.047C497.966 241.047 499.974 241.691 501.424 242.978C502.886 244.265 503.617 246.049 503.617 248.329C503.617 249.475 503.252 250.555 502.521 251.569C501.79 252.584 500.841 253.353 499.674 253.876C501.081 254.356 502.15 255.115 502.881 256.151C503.623 257.176 503.994 258.404 503.994 259.833C503.994 262.124 503.203 263.951 501.621 265.315C500.05 266.667 497.977 267.344 495.403 267.344C492.948 267.344 490.935 266.689 489.364 265.38C487.794 264.071 487.008 262.325 487.008 260.144H491.279C491.279 261.267 491.655 262.184 492.408 262.893C493.161 263.591 494.181 263.94 495.468 263.94C496.788 263.94 497.83 263.591 498.594 262.893C499.357 262.184 499.739 261.164 499.739 259.833C499.739 258.48 499.341 257.444 498.544 256.724C497.748 255.993 496.564 255.627 494.994 255.627H492.474V252.256ZM509.138 254.302L510.529 241.407H524.274V245.105H514.08L513.376 251.209C514.554 250.533 515.891 250.195 517.385 250.195C519.818 250.195 521.711 250.975 523.064 252.535C524.416 254.095 525.093 256.189 525.093 258.818C525.093 261.425 524.34 263.498 522.834 265.036C521.34 266.575 519.289 267.344 516.682 267.344C514.336 267.344 512.389 266.684 510.84 265.364C509.302 264.033 508.473 262.276 508.353 260.095H512.476C512.64 261.338 513.082 262.293 513.802 262.958C514.533 263.613 515.487 263.94 516.665 263.94C517.974 263.94 518.994 263.471 519.725 262.533C520.456 261.595 520.822 260.318 520.822 258.704C520.822 257.144 520.418 255.911 519.611 255.005C518.804 254.1 517.691 253.647 516.273 253.647C515.498 253.647 514.838 253.751 514.293 253.958C513.758 254.155 513.174 254.553 512.542 255.153L509.138 254.302ZM541.741 241.276V244.811H541.217C538.828 244.855 536.919 245.515 535.49 246.791C534.061 248.067 533.21 249.878 532.937 252.224C534.312 250.773 536.063 250.047 538.19 250.047C540.459 250.047 542.243 250.849 543.541 252.453C544.85 254.045 545.505 256.102 545.505 258.622C545.505 261.218 544.741 263.324 543.214 264.938C541.686 266.542 539.679 267.344 537.192 267.344C534.639 267.344 532.566 266.405 530.974 264.529C529.392 262.642 528.601 260.165 528.601 257.1V255.644C528.601 251.16 529.692 247.647 531.874 245.105C534.055 242.553 537.197 241.276 541.299 241.276H541.741ZM537.159 253.5C536.221 253.5 535.359 253.767 534.574 254.302C533.799 254.825 533.232 255.524 532.872 256.396V257.705C532.872 259.604 533.27 261.115 534.066 262.238C534.863 263.351 535.894 263.907 537.159 263.907C538.425 263.907 539.423 263.433 540.154 262.484C540.895 261.535 541.266 260.285 541.266 258.736C541.266 257.187 540.89 255.927 540.137 254.956C539.395 253.985 538.403 253.5 537.159 253.5Z" fill="#001219"/>
<g filter="url(#filter1_d_2167_1333)">
<circle cx="599" cy="195" r="16" fill="#F5A524"/>
</g>
<path d="M555.862 199.102V197.291H558.982C559.545 197.291 559.998 197.245 560.342 197.153C560.686 197.056 560.953 196.898 561.142 196.68C561.331 196.462 561.457 196.173 561.52 195.815C561.583 195.456 561.615 195.012 561.615 194.484V188.622H563.419V196.149C563.419 196.319 563.445 196.474 563.499 196.615C563.552 196.755 563.625 196.876 563.717 196.978C563.814 197.08 563.928 197.16 564.059 197.218C564.194 197.272 564.342 197.298 564.502 197.298H564.873V199.109H564.502C564.022 199.109 563.605 199.019 563.251 198.84C562.897 198.656 562.585 198.396 562.313 198.062C561.954 198.396 561.501 198.653 560.953 198.833C560.405 199.012 559.748 199.102 558.982 199.102H555.862ZM556.699 196.098L556.226 188.905L558.022 188.695L558.502 196.098H556.699ZM564.558 199.109V197.298H566.005L566.616 196.36V188.622H568.419V194.142C568.613 193.943 568.817 193.761 569.03 193.596C569.244 193.427 569.467 193.281 569.699 193.16C569.932 193.034 570.175 192.937 570.427 192.869C570.679 192.796 570.941 192.76 571.212 192.76C571.595 192.76 571.971 192.816 572.339 192.927C572.708 193.039 573.038 193.223 573.329 193.48C573.619 193.737 573.852 194.074 574.027 194.491C574.206 194.908 574.296 195.422 574.296 196.033C574.296 196.615 574.199 197.104 574.005 197.502C573.811 197.895 573.561 198.21 573.256 198.447C572.955 198.685 572.616 198.855 572.238 198.956C571.864 199.058 571.496 199.109 571.132 199.109H564.558ZM571.212 194.564C570.931 194.564 570.64 194.639 570.339 194.789C570.039 194.939 569.741 195.141 569.445 195.393C569.149 195.645 568.866 195.936 568.594 196.265C568.323 196.595 568.075 196.939 567.852 197.298H571.132C571.156 197.298 571.215 197.296 571.307 197.291C571.399 197.286 571.508 197.274 571.634 197.255C571.76 197.23 571.893 197.194 572.034 197.145C572.175 197.092 572.303 197.019 572.419 196.927C572.536 196.83 572.633 196.712 572.71 196.571C572.788 196.425 572.827 196.246 572.827 196.033C572.827 195.761 572.781 195.533 572.689 195.349C572.596 195.16 572.475 195.007 572.325 194.891C572.175 194.775 572.003 194.692 571.809 194.644C571.615 194.59 571.416 194.564 571.212 194.564Z" fill="#001219"/>
<path d="M473.658 199H466.007V197.698L469.796 193.56C470.344 192.954 470.732 192.447 470.96 192.04C471.193 191.628 471.309 191.216 471.309 190.804C471.309 190.261 471.156 189.824 470.851 189.495C470.55 189.16 470.14 188.993 469.622 188.993C469.011 188.993 468.536 189.182 468.196 189.56C467.857 189.933 467.687 190.445 467.687 191.095H465.789C465.789 190.401 465.947 189.778 466.262 189.225C466.577 188.668 467.028 188.236 467.614 187.931C468.201 187.621 468.877 187.465 469.644 187.465C470.744 187.465 471.614 187.744 472.254 188.302C472.894 188.855 473.214 189.621 473.214 190.6C473.214 191.167 473.052 191.764 472.727 192.389C472.407 193.01 471.884 193.715 471.156 194.505L468.378 197.487H473.658V199ZM482.519 194.215C482.519 195.848 482.211 197.08 481.595 197.909C480.985 198.738 480.054 199.153 478.803 199.153C477.576 199.153 476.65 198.748 476.025 197.938C475.404 197.128 475.086 195.931 475.072 194.345V192.375C475.072 190.741 475.377 189.514 475.988 188.695C476.599 187.875 477.532 187.465 478.788 187.465C480.034 187.465 480.963 187.865 481.574 188.665C482.185 189.461 482.5 190.653 482.519 192.244V194.215ZM480.614 192.084C480.614 191.017 480.468 190.236 480.177 189.742C479.886 189.242 479.423 188.993 478.788 188.993C478.168 188.993 477.712 189.228 477.421 189.698C477.13 190.168 476.977 190.905 476.963 191.909V194.484C476.963 195.545 477.111 196.338 477.406 196.862C477.702 197.381 478.168 197.64 478.803 197.64C479.414 197.64 479.865 197.4 480.155 196.92C480.446 196.435 480.599 195.681 480.614 194.658V192.084ZM485.489 196.862C485.872 196.862 486.166 196.968 486.369 197.182C486.578 197.395 486.682 197.662 486.682 197.982C486.682 198.302 486.578 198.566 486.369 198.775C486.166 198.983 485.872 199.087 485.489 199.087C485.135 199.087 484.852 198.985 484.638 198.782C484.425 198.573 484.318 198.307 484.318 197.982C484.318 197.662 484.42 197.395 484.624 197.182C484.832 196.968 485.121 196.862 485.489 196.862ZM493.805 199H491.914V189.865L489.122 190.818V189.218L493.565 187.589H493.805V199ZM505.408 199H497.757V197.698L501.546 193.56C502.094 192.954 502.482 192.447 502.71 192.04C502.943 191.628 503.059 191.216 503.059 190.804C503.059 190.261 502.906 189.824 502.601 189.495C502.3 189.16 501.89 188.993 501.372 188.993C500.761 188.993 500.286 189.182 499.946 189.56C499.607 189.933 499.437 190.445 499.437 191.095H497.539C497.539 190.401 497.697 189.778 498.012 189.225C498.327 188.668 498.778 188.236 499.364 187.931C499.951 187.621 500.627 187.465 501.394 187.465C502.494 187.465 503.364 187.744 504.004 188.302C504.644 188.855 504.964 189.621 504.964 190.6C504.964 191.167 504.802 191.764 504.477 192.389C504.157 193.01 503.634 193.715 502.906 194.505L500.128 197.487H505.408V199Z" fill="#001219"/>
<rect x="587" y="183" width="24" height="24"/>
<rect x="555" y="243" width="60" height="28" rx="14" fill="#14E21C"/>
<rect x="560" y="249" width="16" height="16" rx="8" fill="#14E21C"/>
<path d="M568.001 252.333V261.667M568.001 252.333L570.667 255M568.001 252.333L565.334 255" stroke="#FDFFFC" stroke-width="1.5" stroke-linecap="round" stroke-linejoin="round"/>
<path d="M576.676 253.459C576.676 252.859 576.868 252.366 577.254 251.98C577.643 251.594 578.153 251.402 578.782 251.402C579.419 251.402 579.93 251.594 580.316 251.98C580.701 252.366 580.894 252.871 580.894 253.496V253.989C580.894 254.585 580.701 255.076 580.316 255.462C579.93 255.843 579.423 256.034 578.794 256.034C578.181 256.034 577.674 255.845 577.272 255.468C576.874 255.09 576.676 254.583 576.676 253.946V253.459ZM577.838 253.989C577.838 254.301 577.926 254.555 578.1 254.75C578.279 254.944 578.51 255.042 578.794 255.042C579.078 255.042 579.305 254.944 579.476 254.75C579.65 254.555 579.737 254.291 579.737 253.958V253.459C579.737 253.147 579.65 252.893 579.476 252.698C579.301 252.499 579.07 252.4 578.782 252.4C578.494 252.4 578.264 252.499 578.094 252.698C577.923 252.897 577.838 253.159 577.838 253.483V253.989ZM581.46 259.059C581.46 258.45 581.659 257.957 582.057 257.58C582.454 257.199 582.959 257.008 583.572 257.008C584.193 257.008 584.7 257.199 585.094 257.58C585.488 257.957 585.684 258.467 585.684 259.108V259.595C585.684 260.187 585.494 260.676 585.112 261.062C584.735 261.443 584.228 261.634 583.59 261.634C582.949 261.634 582.434 261.445 582.044 261.068C581.655 260.686 581.46 260.183 581.46 259.558V259.059ZM582.623 259.595C582.623 259.903 582.712 260.157 582.89 260.356C583.073 260.554 583.306 260.654 583.59 260.654C583.879 260.654 584.106 260.561 584.272 260.374C584.439 260.183 584.522 259.915 584.522 259.57V259.059C584.522 258.739 584.432 258.483 584.254 258.292C584.079 258.101 583.852 258.006 583.572 258.006C583.292 258.006 583.063 258.101 582.884 258.292C582.71 258.483 582.623 258.749 582.623 259.09V259.595ZM579.135 260.757L578.283 260.264L583.146 252.485L583.998 252.978L579.135 260.757ZM593.72 261.5H587.024V260.356L590.341 256.74C590.82 256.208 591.161 255.764 591.364 255.407C591.567 255.05 591.668 254.691 591.668 254.33C591.668 253.855 591.534 253.471 591.266 253.179C591.003 252.887 590.644 252.741 590.189 252.741C589.653 252.741 589.237 252.905 588.941 253.234C588.645 253.563 588.497 254.011 588.497 254.579H586.835C586.835 253.974 586.973 253.431 587.249 252.948C587.525 252.461 587.919 252.083 588.43 251.816C588.945 251.544 589.538 251.408 590.207 251.408C591.173 251.408 591.934 251.651 592.49 252.138C593.05 252.625 593.33 253.297 593.33 254.153C593.33 254.648 593.19 255.17 592.91 255.717C592.63 256.261 592.171 256.878 591.534 257.568L589.1 260.173H593.72V261.5ZM596.271 259.558C596.604 259.558 596.862 259.654 597.044 259.844C597.227 260.031 597.318 260.268 597.318 260.557C597.318 260.837 597.227 261.068 597.044 261.25C596.862 261.433 596.604 261.524 596.271 261.524C595.951 261.524 595.697 261.435 595.51 261.257C595.324 261.074 595.23 260.839 595.23 260.55C595.23 260.266 595.322 260.031 595.504 259.844C595.687 259.654 595.943 259.558 596.271 259.558ZM599.636 256.563L600.178 251.548H605.522V252.984H601.56L601.286 255.364C601.744 255.097 602.264 254.963 602.844 254.963C603.794 254.963 604.53 255.267 605.054 255.876C605.581 256.48 605.845 257.296 605.845 258.323C605.845 259.333 605.553 260.139 604.968 260.739C604.388 261.336 603.589 261.634 602.57 261.634C601.661 261.634 600.906 261.376 600.306 260.861C599.705 260.346 599.381 259.664 599.332 258.816H600.939C601.004 259.299 601.176 259.67 601.456 259.93C601.74 260.185 602.11 260.313 602.564 260.313C603.075 260.313 603.473 260.13 603.757 259.765C604.041 259.4 604.183 258.903 604.183 258.274C604.183 257.669 604.025 257.19 603.708 256.837C603.396 256.48 602.964 256.302 602.412 256.302C602.112 256.302 601.856 256.342 601.645 256.423C601.438 256.505 601.211 256.661 600.963 256.892L599.636 256.563Z" fill="white"/>
<rect x="399" y="180" width="60" height="28" rx="14" fill="#14E21C"/>
<rect x="404" y="186" width="16" height="16" rx="8" fill="#14E21C"/>
<path d="M412.001 189.333V198.667M412.001 189.333L414.667 192M412.001 189.333L409.334 192" stroke="#FDFFFC" stroke-width="1.5" stroke-linecap="round" stroke-linejoin="round"/>
<path d="M420.676 190.459C420.676 189.859 420.868 189.366 421.254 188.98C421.643 188.594 422.153 188.402 422.782 188.402C423.419 188.402 423.93 188.594 424.316 188.98C424.701 189.366 424.894 189.871 424.894 190.496V190.989C424.894 191.585 424.701 192.076 424.316 192.462C423.93 192.843 423.423 193.034 422.794 193.034C422.181 193.034 421.674 192.845 421.272 192.468C420.874 192.09 420.676 191.583 420.676 190.946V190.459ZM421.838 190.989C421.838 191.301 421.926 191.555 422.1 191.75C422.279 191.944 422.51 192.042 422.794 192.042C423.078 192.042 423.305 191.944 423.476 191.75C423.65 191.555 423.737 191.291 423.737 190.958V190.459C423.737 190.147 423.65 189.893 423.476 189.698C423.301 189.499 423.07 189.4 422.782 189.4C422.494 189.4 422.264 189.499 422.094 189.698C421.923 189.897 421.838 190.159 421.838 190.483V190.989ZM425.46 196.059C425.46 195.45 425.659 194.957 426.057 194.58C426.454 194.199 426.959 194.008 427.572 194.008C428.193 194.008 428.7 194.199 429.094 194.58C429.488 194.957 429.684 195.467 429.684 196.108V196.595C429.684 197.187 429.494 197.676 429.112 198.062C428.735 198.443 428.228 198.634 427.59 198.634C426.949 198.634 426.434 198.445 426.044 198.068C425.655 197.686 425.46 197.183 425.46 196.558V196.059ZM426.623 196.595C426.623 196.903 426.712 197.157 426.89 197.356C427.073 197.554 427.306 197.654 427.59 197.654C427.879 197.654 428.106 197.561 428.272 197.374C428.439 197.183 428.522 196.915 428.522 196.57V196.059C428.522 195.739 428.432 195.483 428.254 195.292C428.079 195.101 427.852 195.006 427.572 195.006C427.292 195.006 427.063 195.101 426.884 195.292C426.71 195.483 426.623 195.749 426.623 196.09V196.595ZM423.135 197.757L422.283 197.264L427.146 189.485L427.998 189.978L423.135 197.757ZM437.72 198.5H431.024V197.356L434.341 193.74C434.82 193.208 435.161 192.764 435.364 192.407C435.567 192.05 435.668 191.691 435.668 191.33C435.668 190.855 435.534 190.471 435.266 190.179C435.003 189.887 434.644 189.741 434.189 189.741C433.653 189.741 433.237 189.905 432.941 190.234C432.645 190.563 432.497 191.011 432.497 191.579H430.835C430.835 190.974 430.973 190.431 431.249 189.948C431.525 189.461 431.919 189.083 432.43 188.816C432.945 188.544 433.538 188.408 434.207 188.408C435.173 188.408 435.934 188.651 436.49 189.138C437.05 189.625 437.33 190.297 437.33 191.153C437.33 191.648 437.19 192.17 436.91 192.717C436.63 193.261 436.171 193.878 435.534 194.568L433.1 197.173H437.72V198.5ZM440.271 196.558C440.604 196.558 440.862 196.654 441.044 196.844C441.227 197.031 441.318 197.268 441.318 197.557C441.318 197.837 441.227 198.068 441.044 198.25C440.862 198.433 440.604 198.524 440.271 198.524C439.951 198.524 439.697 198.435 439.51 198.257C439.324 198.074 439.23 197.839 439.23 197.55C439.23 197.266 439.322 197.031 439.504 196.844C439.687 196.654 439.943 196.558 440.271 196.558ZM443.636 193.563L444.178 188.548H449.522V189.984H445.56L445.286 192.364C445.744 192.097 446.264 191.963 446.844 191.963C447.794 191.963 448.53 192.267 449.054 192.876C449.581 193.48 449.845 194.296 449.845 195.323C449.845 196.333 449.553 197.139 448.968 197.739C448.388 198.336 447.589 198.634 446.57 198.634C445.661 198.634 444.906 198.376 444.306 197.861C443.705 197.346 443.381 196.664 443.332 195.816H444.939C445.004 196.299 445.176 196.67 445.456 196.93C445.74 197.185 446.11 197.313 446.564 197.313C447.075 197.313 447.473 197.13 447.757 196.765C448.041 196.4 448.183 195.903 448.183 195.274C448.183 194.669 448.025 194.19 447.708 193.837C447.396 193.48 446.964 193.302 446.412 193.302C446.112 193.302 445.856 193.342 445.645 193.423C445.438 193.505 445.211 193.661 444.963 193.892L443.636 193.563Z" fill="white"/>
<g opacity="0.6" clip-path="url(#clip1_2167_1333)">
<path d="M1079.9 35.5H667.097C660.416 35.5 655 40.9157 655 47.5962V243.404C655 250.084 660.416 255.5 667.097 255.5H1079.9C1086.58 255.5 1092 250.084 1092 243.404V47.5962C1092 40.9157 1086.58 35.5 1079.9 35.5Z" fill="#FDFFFC"/>
<path d="M674.683 59.9049L671.396 56.6187C670.691 55.9131 670.691 55.9131 671.396 55.2076L674.683 51.9214" stroke="#3772FF" stroke-miterlimit="10" stroke-linecap="round" stroke-linejoin="round"/>
<path d="M686.702 58.2525H686.519C686.388 58.2525 686.263 58.2445 686.144 58.2284C686.028 58.2124 685.915 58.1675 685.802 58.0938C685.764 58.5075 685.669 58.8828 685.519 59.2195C685.368 59.5563 685.166 59.8434 684.912 60.0807C684.662 60.3212 684.362 60.5073 684.013 60.6388C683.663 60.7703 683.27 60.836 682.834 60.836H682.232V59.6381H682.834C683.142 59.6381 683.408 59.606 683.632 59.5419C683.857 59.4777 684.042 59.3751 684.186 59.2339C684.33 59.0929 684.438 58.9084 684.508 58.6807C684.579 58.4561 684.614 58.1819 684.614 57.858V54.9281H685.812V56.3666C685.812 56.5142 685.843 56.6328 685.903 56.7226C685.968 56.8124 686.04 56.883 686.12 56.9343C686.203 56.9824 686.284 57.0145 686.36 57.0305C686.437 57.0466 686.49 57.0546 686.519 57.0546H686.702V58.2525ZM691.676 57.0546V58.2525H690.964C690.691 58.2525 690.443 58.2157 690.218 58.1419C689.994 58.0681 689.804 57.9591 689.65 57.8147C689.471 57.9655 689.257 58.0761 689.011 58.1467C688.767 58.2172 688.488 58.2525 688.173 58.2525H686.509V57.0546H688.173C688.369 57.0546 688.525 57.037 688.64 57.0016C688.759 56.9632 688.847 56.9167 688.905 56.8622C688.966 56.8076 689.004 56.7466 689.02 56.6793C689.039 56.612 689.049 56.5462 689.049 56.482V54.9233H690.242V56.4484C690.242 56.5927 690.274 56.7066 690.338 56.79C690.403 56.8702 690.475 56.9311 690.555 56.9728C690.638 57.0112 690.72 57.0354 690.8 57.045C690.88 57.0514 690.935 57.0546 690.964 57.0546H691.676ZM690.045 53.6821L689.237 52.8642L690.035 52.0367L690.863 52.8642L690.045 53.6821ZM688.029 53.6869L687.221 52.869L688.015 52.0415L688.842 52.869L688.029 53.6869ZM691.481 57.0546H692.101C692.29 57.0546 692.443 57.0385 692.558 57.0065C692.677 56.9744 692.768 56.9279 692.833 56.8669C692.9 56.8028 692.945 56.7259 692.967 56.636C692.99 56.5462 693.001 56.4436 693.001 56.3281V54.9281H694.199V56.3041C694.199 56.5638 694.261 56.7531 694.387 56.8718C694.512 56.9905 694.709 57.0514 694.978 57.0546C695.026 57.0514 695.084 57.0417 695.152 57.0257C695.222 57.0097 695.289 56.9776 695.354 56.9295C695.421 56.8782 695.477 56.806 695.522 56.713C695.57 56.6168 695.594 56.4885 695.594 56.3281V54.9281H696.787V56.3041C696.787 56.5671 696.85 56.7579 696.975 56.8766C697.1 56.9952 697.304 57.0546 697.586 57.0546C697.663 57.0546 697.738 57.0434 697.812 57.0209C697.889 56.9952 697.958 56.9552 698.019 56.9006C698.08 56.8429 698.13 56.7691 698.168 56.6793C698.207 56.5895 698.229 56.4789 698.236 56.3474V54.9281H699.434V56.3522C699.44 56.5991 699.515 56.7788 699.66 56.891C699.804 57.0001 700.025 57.0546 700.324 57.0546H700.795V58.2525H700.324C699.993 58.2525 699.706 58.2172 699.462 58.1467C699.219 58.0729 699.009 57.9542 698.832 57.7906C698.669 57.9414 698.476 58.0569 698.255 58.137C698.037 58.214 697.814 58.2525 697.586 58.2525C697.285 58.2525 697.02 58.2157 696.792 58.1419C696.568 58.0681 696.367 57.9494 696.191 57.7859C696.024 57.9334 695.836 58.0472 695.628 58.1274C695.423 58.2076 695.214 58.2493 695.002 58.2525H694.969C694.68 58.2525 694.424 58.214 694.199 58.137C693.974 58.0569 693.779 57.9462 693.612 57.8051C693.237 58.1034 692.733 58.2525 692.101 58.2525H691.481V57.0546ZM696.056 52.9363L695.238 53.7639L694.42 52.946L695.238 52.1185L696.056 52.9363ZM698.12 52.9171L697.312 53.735L696.47 52.9267L697.297 52.0993L698.12 52.9171ZM697.057 51.5604L696.287 52.3302L695.527 51.5701L696.297 50.8003L697.057 51.5604ZM705.775 57.0546V58.2525H705.063C704.79 58.2525 704.542 58.2157 704.317 58.1419C704.093 58.0681 703.904 57.9591 703.75 57.8147C703.57 57.9655 703.357 58.0761 703.11 58.1467C702.866 58.2172 702.587 58.2525 702.273 58.2525H700.608V57.0546H702.273C702.468 57.0546 702.624 57.037 702.739 57.0016C702.858 56.9632 702.946 56.9167 703.004 56.8622C703.065 56.8076 703.103 56.7466 703.119 56.6793C703.139 56.612 703.148 56.5462 703.148 56.482V54.9233H704.341V56.4484C704.341 56.5927 704.374 56.7066 704.438 56.79C704.502 56.8702 704.574 56.9311 704.654 56.9728C704.738 57.0112 704.819 57.0354 704.9 57.045C704.98 57.0514 705.034 57.0546 705.063 57.0546H705.775ZM703.851 60.8986L703.042 60.0807L703.841 59.2532L704.669 60.0807L703.851 60.8986ZM701.835 60.9034L701.026 60.0855L701.82 59.258L702.648 60.0855L701.835 60.9034ZM708.361 54.2113C708.367 54.2337 708.38 54.2867 708.399 54.37C708.422 54.4534 708.446 54.5561 708.471 54.678C708.497 54.7966 708.523 54.9297 708.548 55.0773C708.577 55.2248 708.603 55.374 708.625 55.5247C708.651 55.6722 708.67 55.8165 708.683 55.9577C708.699 56.0988 708.707 56.2223 708.707 56.3281C708.707 56.6585 708.653 56.9456 708.544 57.1893C708.435 57.4299 708.292 57.6287 708.115 57.7859C707.939 57.943 707.74 58.0601 707.519 58.137C707.301 58.214 707.081 58.2525 706.86 58.2525H705.58V57.0546H706.893C706.932 57.0546 706.986 57.0497 707.057 57.0401C707.131 57.0273 707.203 56.9968 707.273 56.9487C707.347 56.9006 707.411 56.8284 707.466 56.7322C707.52 56.6328 707.548 56.4981 707.548 56.3281C707.548 56.2576 707.541 56.1725 707.528 56.0731C707.519 55.9705 707.504 55.8614 707.485 55.746C707.466 55.6305 707.443 55.5134 707.418 55.3948C707.395 55.2729 707.373 55.159 707.35 55.0532C707.328 54.9442 707.305 54.8463 707.283 54.7598C707.261 54.67 707.243 54.601 707.23 54.5528L708.361 54.2113ZM706.258 59.9267L707.124 59.0511L708.01 59.9363L707.134 60.812L706.258 59.9267ZM714.799 58.2525C714.491 58.2525 714.207 58.2092 713.947 58.1226C713.691 58.0328 713.469 57.9077 713.283 57.7474C713.097 57.5838 712.951 57.3897 712.846 57.1652C712.743 56.9407 712.692 56.6921 712.692 56.4195C712.692 56.1501 712.725 55.9096 712.793 55.6979C712.86 55.483 712.95 55.2841 713.062 55.1013C713.178 54.9153 713.311 54.7389 713.461 54.5721C713.615 54.4021 713.777 54.2273 713.947 54.0477L713.644 53.7061L714.53 52.9027C714.565 52.9443 714.606 52.9909 714.655 53.0422C714.703 53.0935 714.751 53.1464 714.799 53.2009C714.85 53.2555 714.9 53.3084 714.948 53.3597C714.996 53.411 715.039 53.4575 715.078 53.4993C715.309 53.7462 715.533 53.9867 715.752 54.2209C715.973 54.4518 716.169 54.6844 716.339 54.9185C716.512 55.1494 716.651 55.382 716.757 55.6161C716.857 55.847 716.906 56.0844 716.906 56.3281V56.3522C716.903 56.6345 716.847 56.8878 716.738 57.1123C716.629 57.3336 716.47 57.5389 716.262 57.7281C716.069 57.8917 715.849 58.02 715.602 58.113C715.359 58.206 715.091 58.2525 714.799 58.2525ZM714.741 54.7838C714.613 54.9281 714.491 55.0644 714.376 55.1927C714.263 55.321 714.165 55.4493 714.082 55.5776C714.002 55.7059 713.941 55.8374 713.899 55.9721C713.861 56.0844 713.842 56.2062 713.842 56.3377C713.842 56.3634 713.843 56.3906 713.846 56.4195C713.856 56.5382 713.891 56.6408 713.952 56.7274C714.013 56.8108 714.088 56.8814 714.178 56.9391C714.268 56.9936 714.367 57.0337 714.477 57.0594C714.586 57.085 714.693 57.0979 714.799 57.0979C714.921 57.0979 715.038 57.0802 715.15 57.045C715.262 57.0097 715.36 56.96 715.444 56.8958C715.53 56.8317 715.599 56.7531 715.651 56.6601C715.702 56.5671 715.727 56.4644 715.727 56.3522C715.727 56.2143 715.7 56.0795 715.646 55.9481C715.591 55.8165 715.517 55.6866 715.424 55.5583C715.335 55.43 715.23 55.3018 715.112 55.1735C714.993 55.0452 714.87 54.9153 714.741 54.7838ZM723.122 58.2525H722.733C722.306 58.2525 721.899 58.0649 721.511 57.6896C721.405 57.8147 721.278 57.9189 721.13 58.0023C720.986 58.0825 720.831 58.1467 720.664 58.1948C720.497 58.2429 720.327 58.2766 720.154 58.2958C719.984 58.3151 719.82 58.3247 719.663 58.3247C719.541 58.3247 719.418 58.3167 719.293 58.3006C719.168 58.2878 719.025 58.2637 718.864 58.2284C718.707 58.1964 718.526 58.1531 718.321 58.0985C718.115 58.0409 717.87 57.9687 717.585 57.8821L717.931 56.7322C718.127 56.8092 718.329 56.8782 718.537 56.9391C718.746 56.9968 718.949 57.045 719.148 57.0834C719.347 57.1188 719.538 57.1412 719.721 57.1508C719.795 57.1572 719.865 57.1604 719.933 57.1604C720.032 57.1604 720.139 57.1524 720.255 57.1364C720.37 57.1203 720.478 57.0866 720.577 57.0354C720.68 56.9808 720.749 56.9087 720.784 56.8188C720.8 56.7804 720.808 56.7451 720.808 56.713C720.808 56.6841 720.799 56.6488 720.779 56.6072C720.763 56.5654 720.736 56.5158 720.697 56.458C720.659 56.3971 720.609 56.3185 720.548 56.2223L718.84 53.8216L719.851 53.1721L721.568 55.7749C721.661 55.9159 721.759 56.0619 721.862 56.2127C721.964 56.3634 722.067 56.5013 722.17 56.6264C722.272 56.7483 722.372 56.8493 722.468 56.9295C722.564 57.0097 722.653 57.0497 722.733 57.0497H723.122V58.2525ZM727.597 52.9941C727.805 53.2699 728.017 53.5489 728.232 53.8312C728.321 53.9531 728.416 54.0798 728.515 54.2113C728.618 54.3427 728.721 54.4775 728.823 54.6154C728.929 54.7501 729.032 54.8848 729.131 55.0195C729.231 55.1543 729.327 55.2825 729.42 55.4044C729.619 55.6706 729.749 55.9608 729.81 56.2752C729.829 56.3875 729.839 56.4997 729.839 56.612C729.839 56.814 729.805 57.0161 729.738 57.2182C729.673 57.4106 729.579 57.587 729.454 57.7474C729.332 57.9077 729.183 58.0456 729.006 58.1611C728.83 58.2766 728.628 58.3664 728.4 58.4305C728.172 58.4947 727.922 58.5268 727.649 58.5268C727.419 58.5268 727.18 58.5027 726.933 58.4546C726.686 58.4096 726.434 58.3231 726.177 58.1948C726.119 58.1692 726.063 58.1435 726.009 58.1178C725.961 58.0954 725.911 58.0729 725.86 58.0505C725.808 58.0248 725.765 58.0023 725.73 57.9831C725.422 58.0761 725.08 58.1435 724.705 58.1852C724.333 58.2301 723.921 58.2525 723.469 58.2525H722.925V57.0546H723.469C723.558 57.0546 723.637 57.0562 723.704 57.0594C723.775 57.0594 723.842 57.0594 723.906 57.0594C723.967 57.0594 724.028 57.0578 724.089 57.0546C724.153 57.0514 724.224 57.045 724.301 57.0354C724.217 56.9391 724.142 56.8461 724.075 56.7563C724.011 56.6633 723.954 56.5671 723.906 56.4676C723.861 56.365 723.826 56.2576 723.8 56.1453C723.778 56.0299 723.767 55.9032 723.767 55.7653C723.767 55.5022 723.817 55.2601 723.916 55.0387C724.019 54.8174 724.158 54.6282 724.334 54.471C724.514 54.3139 724.723 54.192 724.96 54.1054C725.201 54.0156 725.459 53.9707 725.735 53.9707C726.046 53.9707 726.322 54.0332 726.562 54.1584C726.806 54.2802 727.01 54.4358 727.173 54.625C727.34 54.811 727.465 55.0131 727.548 55.2312C727.635 55.4493 727.678 55.653 727.678 55.8422C727.678 55.9962 727.662 56.1373 727.63 56.2656C727.601 56.3939 727.56 56.5158 727.505 56.6312C727.451 56.7435 727.383 56.8509 727.303 56.9536C727.223 57.0562 727.133 57.1572 727.034 57.2567C727.133 57.2887 727.236 57.3192 727.342 57.3481C727.447 57.3737 727.55 57.3865 727.649 57.3865C727.749 57.3865 727.853 57.3801 727.962 57.3673C728.071 57.3512 728.174 57.3224 728.27 57.2807C728.37 57.2358 728.456 57.1748 728.53 57.0979C728.607 57.0209 728.665 56.9198 728.703 56.7948C728.716 56.7499 728.722 56.7034 728.722 56.6552C728.722 56.5687 728.697 56.458 728.645 56.3233C728.594 56.1886 728.499 56.017 728.362 55.8085C728.227 55.6001 728.058 55.3707 727.856 55.1205C727.654 54.8672 727.433 54.5913 727.192 54.2931L726.692 53.6725L727.597 52.9941ZM724.902 55.7653C724.902 55.8839 724.92 55.9897 724.955 56.0828C724.994 56.1725 725.05 56.2559 725.124 56.333C725.201 56.4099 725.294 56.4853 725.403 56.5591C725.515 56.6296 725.645 56.705 725.792 56.7851C725.892 56.737 725.988 56.6825 726.081 56.6216C726.174 56.5607 726.254 56.4933 726.322 56.4195C726.392 56.3426 726.448 56.2576 726.49 56.1645C726.532 56.0715 726.553 55.9689 726.553 55.8567C726.553 55.7219 726.524 55.6032 726.466 55.5007C726.408 55.398 726.338 55.313 726.254 55.2457C726.171 55.1783 726.081 55.1285 725.985 55.0965C725.892 55.0644 725.808 55.0484 725.735 55.0484C725.626 55.0484 725.52 55.0676 725.417 55.1061C725.318 55.1446 725.229 55.1975 725.152 55.2649C725.075 55.329 725.014 55.4044 724.97 55.491C724.925 55.5776 724.902 55.669 724.902 55.7653ZM733.443 58.2525C733.091 58.2525 732.788 58.2301 732.535 58.1852C732.281 58.1435 732.067 58.0809 731.894 57.9975C731.721 57.9109 731.582 57.8019 731.476 57.6704C731.373 57.5389 731.295 57.3849 731.24 57.2085C731.186 57.0321 731.149 56.8333 731.129 56.612C731.113 56.3875 731.106 56.1405 731.106 55.8711V51.3151H732.303V55.8711C732.303 56.1276 732.312 56.333 732.328 56.4869C732.346 56.6408 732.393 56.7611 732.467 56.8477C732.544 56.9311 732.658 56.9872 732.808 57.0161C732.963 57.0417 733.174 57.0546 733.443 57.0546V58.2525ZM733.251 57.0546H733.872C734.061 57.0546 734.213 57.0385 734.329 57.0065C734.447 56.9744 734.539 56.9279 734.603 56.8669C734.671 56.8028 734.715 56.7259 734.738 56.636C734.761 56.5462 734.772 56.4436 734.772 56.3281V54.9281H735.969V56.3041C735.969 56.5638 736.032 56.7531 736.157 56.8718C736.282 56.9905 736.48 57.0514 736.749 57.0546C736.797 57.0514 736.855 57.0417 736.922 57.0257C736.992 57.0097 737.06 56.9776 737.124 56.9295C737.191 56.8782 737.248 56.806 737.293 56.713C737.341 56.6168 737.365 56.4885 737.365 56.3281V54.9281H738.558V56.3041C738.558 56.5671 738.62 56.7579 738.746 56.8766C738.87 56.9952 739.075 57.0546 739.357 57.0546C739.434 57.0546 739.509 57.0434 739.583 57.0209C739.66 56.9952 739.729 56.9552 739.79 56.9006C739.85 56.8429 739.9 56.7691 739.939 56.6793C739.977 56.5895 740 56.4789 740.006 56.3474V54.9281H741.204V56.3522C741.21 56.5991 741.286 56.7788 741.43 56.891C741.575 57.0001 741.796 57.0546 742.094 57.0546H742.566V58.2525H742.094C741.764 58.2525 741.477 58.2172 741.233 58.1467C740.99 58.0729 740.779 57.9542 740.603 57.7906C740.439 57.9414 740.246 58.0569 740.026 58.137C739.807 58.214 739.584 58.2525 739.357 58.2525C739.055 58.2525 738.79 58.2157 738.563 58.1419C738.338 58.0681 738.138 57.9494 737.962 57.7859C737.795 57.9334 737.607 58.0472 737.398 58.1274C737.193 58.2076 736.985 58.2493 736.773 58.2525H736.739C736.45 58.2525 736.194 58.214 735.969 58.137C735.745 58.0569 735.549 57.9462 735.383 57.8051C735.007 58.1034 734.503 58.2525 733.872 58.2525H733.251V57.0546ZM737.826 52.9363L737.009 53.7639L736.191 52.946L737.009 52.1185L737.826 52.9363ZM739.89 52.9171L739.082 53.735L738.241 52.9267L739.068 52.0993L739.89 52.9171ZM738.827 51.5604L738.058 52.3302L737.297 51.5701L738.067 50.8003L738.827 51.5604ZM745.949 57.3432C745.977 57.3432 746.022 57.3385 746.083 57.3288C746.147 57.316 746.212 57.2807 746.275 57.2229C746.339 57.1652 746.396 57.077 746.444 56.9583C746.495 56.8365 746.521 56.6665 746.521 56.4484C746.521 56.365 746.505 56.2592 746.473 56.1309C746.444 55.9994 746.391 55.8727 746.314 55.7508C746.24 55.6257 746.139 55.5199 746.011 55.4333C745.886 55.3435 745.727 55.2986 745.534 55.2986C745.368 55.2986 745.232 55.3482 745.126 55.4477C745.02 55.5472 744.93 55.6706 744.856 55.8182C744.786 55.9657 744.725 56.126 744.673 56.2992C744.626 56.4693 744.573 56.6248 744.514 56.7659C744.633 56.8333 744.759 56.9022 744.89 56.9728C745.025 57.0401 745.156 57.1011 745.285 57.1556C745.413 57.2102 745.533 57.2551 745.645 57.2903C745.761 57.3256 745.862 57.3432 745.949 57.3432ZM745.534 54.1054C745.871 54.1054 746.165 54.168 746.415 54.2931C746.668 54.4181 746.877 54.5866 747.04 54.7982C747.207 55.0067 747.331 55.2488 747.411 55.5247C747.495 55.8005 747.536 56.0891 747.536 56.3906C747.536 56.7242 747.508 57.0081 747.449 57.2422C747.392 57.4763 747.315 57.6704 747.219 57.8243C747.126 57.9783 747.018 58.0985 746.896 58.1852C746.777 58.275 746.657 58.3407 746.535 58.3824C746.417 58.4273 746.301 58.4546 746.189 58.4642C746.076 58.477 745.98 58.4834 745.9 58.4834C745.74 58.4834 745.587 58.4674 745.444 58.4354C745.299 58.4065 745.152 58.3632 745.001 58.3055C744.853 58.2509 744.699 58.1835 744.539 58.1034C744.378 58.02 744.204 57.9269 744.015 57.8243C743.87 57.9783 743.714 58.0889 743.547 58.1563C743.384 58.2204 743.191 58.2525 742.971 58.2525H742.379L742.369 57.0546H742.971C743.041 57.0546 743.102 57.0337 743.153 56.992C743.208 56.9503 743.256 56.8926 743.297 56.8188C743.342 56.7419 743.383 56.6505 743.417 56.5446C743.456 56.4355 743.494 56.3153 743.533 56.1838C743.597 55.9528 743.674 55.7155 743.764 55.4718C743.854 55.2248 743.972 55.0003 744.12 54.7982C744.271 54.5962 744.46 54.431 744.688 54.3027C744.916 54.1712 745.198 54.1054 745.534 54.1054Z" fill="#3772FF"/>
<path d="M673.145 237.356L677.026 237.332C680.907 237.307 688.669 237.258 696.431 222.57C704.193 207.882 711.955 178.554 719.718 173.125C727.48 167.697 735.242 186.167 743.004 189.642C750.766 193.118 758.528 181.597 766.291 167.629C774.053 153.66 781.815 137.241 789.577 129.834C797.339 122.427 805.101 124.031 812.864 126.631C820.626 129.233 828.388 132.833 836.15 138.818C843.912 144.805 851.674 153.177 859.437 156.539C867.199 159.9 874.961 158.25 882.723 150.346C890.486 142.442 898.247 128.283 902.129 121.205L906.01 114.125" stroke="#14E21C" stroke-width="4" stroke-linecap="round"/>
</g>
<rect x="302" y="315" width="8" height="8" rx="4" fill="#FCFCFD"/>
<rect x="318" y="315" width="8" height="8" rx="4" fill="#FCFCFD"/>
<rect x="334" y="315" width="8" height="8" rx="4" fill="#FCFCFD"/>
<rect x="350" y="315" width="32" height="8" rx="4" fill="#FCFCFD"/>
<defs>
<filter id="filter0_d_2167_1333" x="-11.291" y="170.827" width="32.1934" height="32.1924" filterUnits="userSpaceOnUse" color-interpolation-filters="sRGB">
<feFlood flood-opacity="0" result="BackgroundImageFix"/>
<feColorMatrix in="SourceAlpha" type="matrix" values="0 0 0 0 0 0 0 0 0 0 0 0 0 0 0 0 0 0 127 0" result="hardAlpha"/>
<feOffset dy="4"/>
<feGaussianBlur stdDeviation="2"/>
<feComposite in2="hardAlpha" operator="out"/>
<feColorMatrix type="matrix" values="0 0 0 0 0.960784 0 0 0 0 0.647059 0 0 0 0 0.141176 0 0 0 0.25 0"/>
<feBlend mode="normal" in2="BackgroundImageFix" result="effect1_dropShadow_2167_1333"/>
<feBlend mode="normal" in="SourceGraphic" in2="effect1_dropShadow_2167_1333" result="shape"/>
</filter>
<filter id="filter1_d_2167_1333" x="579" y="179" width="40" height="40" filterUnits="userSpaceOnUse" color-interpolation-filters="sRGB">
<feFlood flood-opacity="0" result="BackgroundImageFix"/>
<feColorMatrix in="SourceAlpha" type="matrix" values="0 0 0 0 0 0 0 0 0 0 0 0 0 0 0 0 0 0 127 0" result="hardAlpha"/>
<feOffset dy="4"/>
<feGaussianBlur stdDeviation="2"/>
<feComposite in2="hardAlpha" operator="out"/>
<feColorMatrix type="matrix" values="0 0 0 0 0.960784 0 0 0 0 0.647059 0 0 0 0 0.141176 0 0 0 0.25 0"/>
<feBlend mode="normal" in2="BackgroundImageFix" result="effect1_dropShadow_2167_1333"/>
<feBlend mode="normal" in="SourceGraphic" in2="effect1_dropShadow_2167_1333" result="shape"/>
</filter>
<clipPath id="clip0_2167_1333">
<rect width="437" height="220" fill="white" transform="translate(-408 35.5)"/>
</clipPath>
<clipPath id="clip1_2167_1333">
<rect width="437" height="220" fill="white" transform="translate(655 35.5)"/>
</clipPath>
</defs>
</svg>
